<?xml version="1.0" encoding="UTF-8"?>
<svg version="1.1" xmlns="http://www.w3.org/2000/svg" width="1024" height="1024">
<path d="M0 0 C2.69402194 0.02447604 5.38804332 0.0441765 8.08211136 0.06282043 C12.24991354 0.09309513 16.41724721 0.13898395 20.58473778 0.19810486 C22.06681514 0.21736242 23.54895891 0.23219761 25.03112984 0.24186707 C45.2324765 0.38700818 64.04000618 6.50694303 78.64653397 20.89961243 C97.86137061 40.71590195 99.36233556 64.14443273 99.35429764 90.42597961 C99.35729476 92.39191247 99.36069855 94.35784474 99.36447525 96.32377625 C99.37326282 101.63389112 99.37565113 106.94398985 99.37629104 112.25411129 C99.37700448 115.57970533 99.37914434 118.90529533 99.38178825 122.23088837 C99.39102407 133.85549172 99.39512532 145.48008365 99.3943367 157.10469055 C99.39373627 167.90416732 99.40428588 178.70359408 99.42008036 189.5030582 C99.43319687 198.80623569 99.43851888 208.10939693 99.43788129 217.41258359 C99.43762753 222.95511974 99.44041116 228.49761139 99.45105934 234.04013824 C99.46080989 239.25722607 99.46077229 244.47422747 99.45354271 249.69131851 C99.45250549 251.59387718 99.45480776 253.49644144 99.46090317 255.39899063 C99.5249975 276.81009934 97.71650664 294.61499326 85.20903397 312.77461243 C84.28670975 314.27701477 84.28670975 314.27701477 83.34575272 315.80976868 C74.6700928 327.84784158 57.13634578 336.31514807 42.8240242 339.3507843 C37.66738829 340.18655313 32.48600816 340.26851271 27.27153397 340.39961243 C25.29999344 340.45544495 25.29999344 340.45544495 23.28862381 340.5124054 C7.97445769 340.9007893 -7.34792506 340.88161032 -22.66596603 340.89961243 C-24.00213762 340.90225722 -25.3383091 340.90496287 -26.67448044 340.9077301 C-30.46073322 340.91354188 -34.24690039 340.91187622 -38.03315353 340.90742493 C-39.19008209 340.9093988 -40.34701065 340.91137268 -41.53899765 340.91340637 C-43.12721077 340.90875366 -43.12721077 340.90875366 -44.747509 340.90400696 C-45.67691299 340.90321136 -46.60631699 340.90241577 -47.56388474 340.90159607 C-49.79096603 340.77461243 -49.79096603 340.77461243 -51.79096603 339.77461243 C-52.12096603 340.43461243 -52.45096603 341.09461243 -52.79096603 341.77461243 C-53.67979933 341.66775446 -53.67979933 341.66775446 -54.58658886 341.55873775 C-61.06275793 340.83818319 -67.42587751 340.64826762 -73.93769455 340.69282532 C-75.00424774 340.69589188 -76.07080093 340.69895844 -77.16967392 340.70211792 C-79.46999057 340.70923228 -81.77030116 340.71860049 -84.07060051 340.73001289 C-87.72641149 340.74753974 -91.38217791 340.75774656 -95.03802109 340.76593018 C-105.42747331 340.79025574 -115.81686561 340.82573532 -126.20624924 340.87055969 C-132.57851326 340.89754101 -138.95074266 340.91445443 -145.32305336 340.92542839 C-147.73447 340.93158345 -150.1458804 340.9415184 -152.55726433 340.95550728 C-180.58486188 341.11660331 -203.79314539 339.38227087 -224.79096603 318.77461243 C-225.75002853 317.85228821 -225.75002853 317.85228821 -226.72846603 316.91133118 C-236.41449086 306.81451512 -241.77191274 292.2698787 -242.9612999 278.50282288 C-243.04101601 277.63903291 -243.12073212 276.77524293 -243.20286387 275.88527751 C-244.01950668 266.30085245 -244.07992011 256.73596001 -244.06562424 247.12324524 C-244.06998618 245.146279 -244.07517417 243.16931443 -244.08111191 241.19235229 C-244.09434736 235.88889297 -244.09509856 230.58550555 -244.09254861 225.28203297 C-244.09146926 220.83130897 -244.09638612 216.38059896 -244.10115403 211.929878 C-244.1121936 201.42449859 -244.11271671 190.91915496 -244.10663986 180.41377258 C-244.10059114 169.61864333 -244.11294671 158.82364412 -244.13420993 148.02853703 C-244.15187707 138.7124535 -244.15781964 129.39641119 -244.15457219 120.08031154 C-244.15276889 114.53675838 -244.15530041 108.99329823 -244.16928673 103.44976044 C-244.18194582 98.23909226 -244.17984525 93.02862615 -244.16687584 87.81796074 C-244.16452882 85.91862097 -244.1671765 84.0192666 -244.17549896 82.11994362 C-244.23277534 68.0204428 -244.09793208 53.07102258 -237.10346603 40.39961243 C-236.75606369 39.74098206 -236.40866135 39.08235168 -236.05073166 38.40376282 C-231.48358361 30.00905668 -225.76712294 23.18181648 -218.35737228 17.14961243 C-216.66624062 15.83946473 -216.66624062 15.83946473 -215.79096603 13.77461243 C-195.67051628 0.99392747 -175.61996239 0.31151862 -152.47455978 0.22773743 C-149.76852912 0.20926696 -147.06253543 0.18669256 -144.35653305 0.164505 C-137.87941818 0.11427962 -131.40232243 0.08047991 -124.92507225 0.05362463 C-119.70976297 0.0318823 -114.49451054 0.00452237 -109.27924728 -0.02629089 C-72.8531542 -0.23908955 -36.42558362 -0.34939052 0 0 Z M-102.66596603 63.52461243 C-105.26945225 64.66645262 -107.87349688 65.80701208 -110.47761154 66.94741821 C-112.26056383 67.7282204 -114.04335901 68.5093814 -115.82600021 69.29089355 C-124.11011271 72.92073318 -132.41307889 76.50618061 -140.71894455 80.08589172 C-152.55361857 85.18882498 -164.37717564 90.31646192 -176.16596603 95.52461243 C-177.25296799 96.00196838 -178.33996994 96.47932434 -179.45991135 96.97114563 C-188.18940518 100.45940782 -188.18940518 100.45940782 -195.79096603 105.77461243 C-196.29191627 108.6476747 -196.29191627 108.6476747 -195.79096603 111.77461243 C-192.62429282 114.72784566 -189.44478035 116.58162802 -185.47846603 118.26289368 C-183.8949736 118.93928894 -183.8949736 118.93928894 -182.27949142 119.62934875 C-181.12827805 120.11041077 -179.97706467 120.59147278 -178.79096603 121.08711243 C-177.55441233 121.60980202 -176.3180069 122.1328425 -175.08173752 122.65620422 C-161.14016163 128.53653337 -147.10279859 134.18749868 -133.06772995 139.83996582 C-127.26163237 142.17897051 -121.46066851 144.53038935 -115.66205978 146.88789368 C-113.99205849 147.56652805 -112.32205525 148.24515766 -110.65205002 148.92378235 C-108.25732867 149.89697526 -105.86270928 150.87041379 -103.46848679 151.84483337 C-99.88258238 153.3038881 -96.29485604 154.75779132 -92.70112228 156.19746399 C-90.17489507 157.20972342 -87.66846977 158.25037443 -85.16205978 159.31269836 C-84.04959885 159.77192688 -82.93713791 160.2311554 -81.79096603 160.70429993 C-80.36784103 161.30733948 -80.36784103 161.30733948 -78.91596603 161.92256165 C-70.77518232 164.14219721 -64.55394865 162.3872036 -56.99799728 159.08320618 C-55.63525932 158.50881554 -55.63525932 158.50881554 -54.2449913 157.92282104 C-52.32996499 157.11226977 -50.41815377 156.29408453 -48.50947189 155.46870422 C-45.63524575 154.22585436 -42.75250774 153.00500652 -39.86713791 151.7882843 C-29.65772726 147.45670887 -19.6223681 142.91144943 -9.79096603 137.77461243 C-11.67412762 136.6662482 -11.67412762 136.6662482 -13.79096603 135.77461243 C-14.78096603 136.26961243 -14.78096603 136.26961243 -15.79096603 136.77461243 C-15.79096603 136.11461243 -15.79096603 135.45461243 -15.79096603 134.77461243 C-21.46358797 132.954753 -27.13785971 131.1401641 -32.81367111 129.33027649 C-34.74120816 128.71483372 -36.6683 128.09799465 -38.59492111 127.47969055 C-41.37653531 126.58727099 -44.15975272 125.7000132 -46.94330978 124.81367493 C-47.79368317 124.53963837 -48.64405655 124.26560181 -49.52019882 123.98326111 C-60.08362299 120.21721296 -60.08362299 120.21721296 -70.91596603 120.83711243 C-74.33241334 121.66195562 -76.48812433 121.94471011 -79.79096603 120.64961243 C-84.00212141 118.01764032 -84.00212141 118.01764032 -84.79096603 114.77461243 C-85.44978956 107.85696537 -85.44978956 107.85696537 -83.04096603 103.89961243 C-79.48976121 100.54569676 -79.48976121 100.54569676 -76.79096603 99.77461243 C-72.76898435 99.92930403 -69.72018325 100.69735937 -66.22846603 102.59883118 C-61.33999466 105.10516061 -56.25899295 106.7778126 -51.04096603 108.46211243 C-50.10897385 108.76955383 -49.17698166 109.07699524 -48.21674728 109.39375305 C-43.53051033 110.95122204 -43.53051033 110.95122204 -38.77509689 112.27241516 C-36.57733663 112.82868351 -34.47878076 113.54150971 -32.34174728 114.29804993 C-31.49289963 114.59711243 -30.64405197 114.89617493 -29.76948166 115.20429993 C-28.44980392 115.67222961 -28.44980392 115.67222961 -27.10346603 116.14961243 C-22.11216602 117.91432674 -17.1224232 119.67559115 -12.09565353 121.33711243 C-7.0609848 123.0025584 -2.09552628 124.84699752 2.87700272 126.68867493 C15.3599879 130.75698663 26.25272858 124.47957151 37.83403397 119.77461243 C38.90186111 119.34752991 39.96968826 118.92044739 41.06987381 118.48042297 C42.07743729 118.06188049 43.08500076 117.64333801 44.12309647 117.21211243 C45.03011307 116.83957336 45.93712967 116.4670343 46.87163162 116.08320618 C49.48583401 114.61964603 50.69100349 113.34064526 52.20903397 110.77461243 C52.7742233 107.73744888 52.7742233 107.73744888 51.20903397 104.77461243 C49.26636501 103.47600758 49.26636501 103.47600758 46.86137772 102.39570618 C45.95476395 101.9644342 45.04815018 101.53316223 44.11406326 101.08882141 C39.26497012 98.89513552 34.37318364 96.81780006 29.45903397 94.77461243 C19.80964782 90.72597224 10.18327432 86.62812639 0.58403397 82.46211243 C-0.34268616 82.0601062 -0.34268616 82.0601062 -1.2881279 81.64997864 C-10.63332461 77.59462728 -19.96667471 73.5123563 -29.29780197 69.42475891 C-33.29016493 67.67655912 -37.28374215 65.93113465 -41.27750778 64.18614197 C-44.23284567 62.89456401 -47.18698305 61.60036956 -50.13911057 60.3014679 C-53.06211593 59.01560134 -55.98849782 57.73777777 -58.91596603 56.46211243 C-60.15842087 55.91152161 -60.15842087 55.91152161 -61.4259758 55.34980774 C-76.40093895 48.86165927 -88.67626799 57.36460376 -102.66596603 63.52461243 Z M20.20903397 150.77461243 C21.20903397 154.77461243 21.20903397 154.77461243 21.20903397 154.77461243 Z M-147.79096603 151.77461243 C-149.28743439 154.76754914 -148.95377757 157.84371143 -148.95893478 161.12617493 C-148.96226318 161.85903717 -148.96559158 162.59189941 -148.96902084 163.3469696 C-148.97408937 164.90210849 -148.97642919 166.45725826 -148.97626877 168.0124054 C-148.97843834 170.36952732 -148.99654711 172.72616816 -149.01557541 175.08320618 C-149.0185129 176.5975275 -149.02049531 178.11185104 -149.02143478 179.62617493 C-149.0286203 180.32231903 -149.03580582 181.01846313 -149.04320908 181.73570251 C-149.01866045 187.11076604 -148.61034957 192.99797155 -145.59565353 197.59883118 C-142.87702942 199.37005598 -139.94060552 200.46290341 -136.91596603 201.58711243 C-132.14905479 203.42399789 -127.47100416 205.33081572 -122.85346603 207.52461243 C-113.59190512 211.86954224 -104.12515775 215.73658134 -94.65522385 219.60127258 C-92.8624402 220.33568429 -91.0722614 221.07652441 -89.28608322 221.82685852 C-87.14912242 222.72449169 -85.00377077 223.59704428 -82.85346603 224.46211243 C-81.6894426 224.94035461 -80.52541916 225.4185968 -79.32612228 225.91133118 C-69.66297133 228.27106196 -61.67631132 223.90896604 -52.97846603 219.96211243 C-50.99566571 219.07705269 -49.01121893 218.19575627 -47.02669907 217.31455994 C-45.66643501 216.71010025 -44.30684985 216.10411058 -42.9479332 215.49662781 C-38.25123866 213.40184795 -33.52582644 211.38857184 -28.77534103 209.41914368 C-27.49379341 208.8845225 -26.21229834 208.34977536 -24.93085861 207.81489563 C-22.51301475 206.80618073 -20.09094839 205.81101768 -17.66474533 204.82221985 C-8.68537178 201.1576193 -8.68537178 201.1576193 -2.79096603 193.77461243 C-2.60938818 190.89498584 -2.48376644 188.0363623 -2.40424728 185.15351868 C-2.37872284 184.29781784 -2.35319839 183.442117 -2.32690048 182.56048584 C-2.27485885 180.74903888 -2.22543591 178.93751509 -2.17841721 177.12593079 C-2.10385218 174.35148019 -2.01319824 171.57785063 -1.92182541 168.8039093 C-1.87330846 167.04547282 -1.82575049 165.28700957 -1.77924728 163.52851868 C-1.75018799 162.69719925 -1.72112869 161.86587982 -1.69118881 161.0093689 C-1.57213642 156.09978789 -1.57213642 156.09978789 -3.79096603 151.77461243 C-7.3278825 153.16464421 -10.80532922 154.65037587 -14.27143478 156.20820618 C-15.34103439 156.68717346 -16.410634 157.16614075 -17.51264572 157.65962219 C-18.65636642 158.17194397 -19.80008713 158.68426575 -20.97846603 159.21211243 C-33.66114975 164.87408646 -46.40622412 170.37768078 -59.24213791 175.68525696 C-60.7779342 176.34164806 -62.30095689 177.0312249 -63.79291916 177.78193665 C-69.16448466 180.46014954 -73.56246101 179.82415681 -79.04096603 178.04316711 C-81.48485753 177.1358724 -83.88714316 176.15816677 -86.29096603 175.14961243 C-87.17042892 174.78915833 -88.04989182 174.42870422 -88.9560051 174.05732727 C-94.80846193 171.64443505 -100.61941618 169.1398419 -106.40546799 166.57221985 C-112.72409296 163.77527003 -119.09867317 161.11606811 -125.47846603 158.46211243 C-126.51906174 158.02914856 -127.55965744 157.59618469 -128.63178635 157.15010071 C-131.35009648 156.02140139 -134.06841822 154.89305166 -136.79096603 153.77461243 C-137.65439621 153.40312073 -138.51782639 153.03162903 -139.40742111 152.64888 C-142.30305468 151.5867819 -144.73132444 151.63230352 -147.79096603 151.77461243 Z M20.20903397 156.77461243 C19.87903397 162.05461243 19.54903397 167.33461243 19.20903397 172.77461243 C18.21903397 173.10461243 17.22903397 173.43461243 16.20903397 173.77461243 C13.44014035 177.4178935 13.99797064 181.41263695 14.20903397 185.77461243 C14.53903397 186.43461243 14.86903397 187.09461243 15.20903397 187.77461243 C15.86903397 187.77461243 16.52903397 187.77461243 17.20903397 187.77461243 C17.20903397 188.43461243 17.20903397 189.09461243 17.20903397 189.77461243 C21.30786321 190.67635486 23.62148324 191.00310437 27.58403397 189.46211243 C30.28992525 188.03827882 30.28992525 188.03827882 31.20903397 185.77461243 C31.71349542 181.49082502 31.97837293 177.95821083 29.58403397 174.27461243 C26.81368357 172.3102205 26.81368357 172.3102205 21.20903397 171.77461243 C21.20903397 166.82461243 21.20903397 161.87461243 21.20903397 156.77461243 C20.87903397 156.77461243 20.54903397 156.77461243 20.20903397 156.77461243 Z M-193.79096603 211.77461243 C-195.55587055 215.96194227 -196.04704538 219.5721736 -196.05659103 224.09101868 C-196.05916916 225.26728821 -196.06174728 226.44355774 -196.06440353 227.6554718 C-196.05666916 228.87041321 -196.04893478 230.08535461 -196.04096603 231.33711243 C-196.04870041 232.55592102 -196.05643478 233.77472961 -196.06440353 235.0304718 C-196.06182541 236.20545227 -196.05924728 237.38043274 -196.05659103 238.59101868 C-196.05433517 239.65779846 -196.05207932 240.72457825 -196.0497551 241.82368469 C-195.68322093 246.00321159 -194.7703527 248.79522576 -191.79096603 251.77461243 C-188.60126482 252.02083972 -188.60126482 252.02083972 -184.82612228 251.89961243 C-183.38105698 251.88202566 -181.93598845 251.86470194 -180.49091721 251.84761047 C-179.73346207 251.83515289 -178.97600693 251.82269531 -178.1955986 251.80986023 C-146.57386282 251.33397056 -116.94029987 255.50368172 -89.10346603 271.58711243 C-81.4329994 276.64918507 -81.4329994 276.64918507 -72.79096603 278.77461243 C-68.45934879 277.33494955 -64.70459721 275.09760209 -60.79096603 272.77461243 C-40.5610681 261.31330507 -19.99765114 254.92245109 3.02153397 251.96211243 C4.04714432 251.82579407 5.07275467 251.68947571 6.12944412 251.54902649 C12.33701491 250.82036808 18.09210694 250.85308628 24.30546951 251.49263 C28.77313178 251.92651127 33.22320401 251.99692212 37.70903397 252.02461243 C38.57528397 252.04523743 39.44153397 252.06586243 40.33403397 252.08711243 C45.2270128 252.13224717 45.2270128 252.13224717 49.74028397 250.44648743 C53.68604018 245.95504152 52.43295319 239.03979005 52.44926834 233.43281555 C52.45896719 231.41351517 52.49000153 229.39523631 52.52153397 227.37617493 C52.52669022 226.09742493 52.53184647 224.81867493 52.53715897 223.50117493 C52.55117752 221.7466803 52.55117752 221.7466803 52.56547928 219.95674133 C52.06371016 215.47724906 50.35131603 212.91689449 47.20903397 209.77461243 C37.79477854 207.06822154 26.5067178 209.71942836 17.08403397 211.52461243 C16.29826981 211.66922913 15.51250565 211.81384583 14.70293045 211.96284485 C1.33094724 214.68394385 -11.20719529 221.03900077 -23.62958908 226.51264954 C-26.35004378 227.71060543 -29.07327376 228.90207636 -31.79682541 230.0929718 C-36.06170398 231.9622863 -40.31543485 233.85483676 -44.55991745 235.77000427 C-45.97194594 236.4058198 -47.38607267 237.03701319 -48.80302048 237.66178894 C-50.51046196 238.41782644 -52.20600321 239.20058595 -53.90034103 239.98554993 C-54.79849533 240.39466614 -55.69664963 240.80378235 -56.62202072 241.22529602 C-60.80958897 244.21655087 -61.72536628 248.9605199 -62.79096603 253.77461243 C-63.12096603 254.76461243 -63.45096603 255.75461243 -63.79096603 256.77461243 C-68.7863504 258.77276617 -72.58403738 259.12455689 -77.79096603 257.77461243 C-80.54096603 256.33711243 -80.54096603 256.33711243 -82.79096603 253.77461243 C-83.3020072 252.12334499 -83.75546724 250.45370086 -84.16596603 248.77461243 C-85.07057343 245.14308759 -85.07057343 245.14308759 -87.35346603 242.30586243 C-89.78386221 240.92305081 -92.35398947 239.94687444 -94.95112228 238.92304993 C-98.94436948 237.30817417 -102.89615043 235.60031413 -106.85346603 233.89961243 C-107.75742111 233.51321594 -108.66137619 233.12681946 -109.59272385 232.72871399 C-115.00914498 230.41103194 -120.41164619 228.0648374 -125.80268478 225.68867493 C-159.34663059 209.41584225 -159.34663059 209.41584225 -193.79096603 211.77461243 Z M-179.10346603 265.39961243 C-180.18370041 265.45657288 -181.26393478 265.51353333 -182.37690353 265.57221985 C-188.7373799 265.96350682 -188.7373799 265.96350682 -194.02924728 269.15742493 C-196.11387 271.69886643 -196.11387 271.69886643 -195.66596603 275.02461243 C-195.05960082 277.65911861 -195.05960082 277.65911861 -193.79096603 278.77461243 C-187.81490117 279.35731263 -181.89445387 278.58614112 -175.97846603 277.77461243 C-143.03526047 273.42607867 -114.64878305 284.08412927 -87.89252853 302.64570618 C-82.69301968 306.21463858 -78.34263917 309.18682154 -71.79096603 308.77461243 C-65.84544782 306.58395202 -60.3971932 302.79549372 -55.04096603 299.46211243 C-53.4409512 298.48124296 -51.84069081 297.50077395 -50.24018478 296.52070618 C-47.68587094 294.95059385 -45.14866165 293.3635693 -42.62299728 291.74726868 C-18.15249604 276.52654787 9.27945401 274.97283877 37.16215897 278.88398743 C38.26044022 279.0257843 39.35872147 279.16758118 40.49028397 279.31367493 C41.470616 279.44983215 42.45094803 279.58598938 43.46098709 279.72627258 C46.55113649 279.78063022 48.45700177 279.13661242 51.20903397 277.77461243 C51.53903397 277.44461243 51.86903397 277.11461243 52.20903397 276.77461243 C52.19310634 273.32569134 52.19310634 273.32569134 51.20903397 269.77461243 C47.50352396 266.88320448 44.38045864 266.31569744 39.75590897 266.00898743 C38.50511551 265.92286194 37.25432205 265.83673645 35.96562576 265.7480011 C34.6301748 265.67212344 33.2946412 265.59768792 31.95903397 265.52461243 C31.28297104 265.48413788 30.60690811 265.44366333 29.91035843 265.40196228 C0.77173223 263.67104464 -25.36323572 268.16654805 -50.79096603 282.77461243 C-52.45688633 283.67183297 -54.1234353 284.56788852 -55.79096603 285.46211243 C-58.54987099 286.99772934 -61.11370162 288.66601323 -63.66596603 290.52461243 C-68.23338749 293.81315587 -72.26457062 294.47289344 -77.79096603 293.77461243 C-82.54161031 292.16521049 -86.62056408 289.24877633 -90.79096603 286.52461243 C-117.8036088 269.17261219 -147.36030142 263.36074567 -179.10346603 265.39961243 Z " fill="#007EE0" transform="translate(327.79096603393555,313.2253875732422)"/>
<path d="M0 0 C0.79599609 0.0515625 1.59199219 0.103125 2.41210938 0.15625 C3.22873047 0.22070312 4.04535156 0.28515625 4.88671875 0.3515625 C6.1406543 0.43664062 6.1406543 0.43664062 7.41992188 0.5234375 C9.47208803 0.66415746 11.52327993 0.8189618 13.57421875 0.9765625 C12.97749003 4.24031471 12.20318692 7.28415476 11.078125 10.40405273 C10.77207336 11.25789047 10.46602173 12.11172821 10.1506958 12.99143982 C9.64877716 14.37432945 9.64877716 14.37432945 9.13671875 15.78515625 C8.78454285 16.76392227 8.43236694 17.74268829 8.06951904 18.75111389 C6.90850037 21.9735869 5.74184863 25.19397953 4.57421875 28.4140625 C4.17593872 29.51459961 3.77765869 30.61513672 3.36730957 31.74902344 C1.2837966 37.50600562 -0.80415405 43.26135336 -2.89648438 49.01513672 C-4.55156775 53.5669335 -6.20138796 58.12057194 -7.84570312 62.67626953 C-9.75004951 67.95147335 -11.66504678 73.22268696 -13.58837891 78.49099731 C-14.30701591 80.46408264 -15.02224875 82.43841152 -15.73388672 84.41403198 C-23.61204707 106.26096666 -23.61204707 106.26096666 -28.42578125 111.9765625 C-29.08578125 111.9765625 -29.74578125 111.9765625 -30.42578125 111.9765625 C-30.42578125 112.6365625 -30.42578125 113.2965625 -30.42578125 113.9765625 C-39.72996527 122.223975 -52.32311992 124.30032796 -64.42578125 123.9765625 C-66.8359375 122.98828125 -66.8359375 122.98828125 -68.42578125 121.9765625 C-68.45262112 118.99733657 -68.47254162 116.01834955 -68.48828125 113.0390625 C-68.49666016 112.18892578 -68.50503906 111.33878906 -68.51367188 110.46289062 C-68.51689453 109.65400391 -68.52011719 108.84511719 -68.5234375 108.01171875 C-68.52867432 107.262854 -68.53391113 106.51398926 -68.53930664 105.74243164 C-68.42578125 103.9765625 -68.42578125 103.9765625 -67.42578125 102.9765625 C-64.11771305 102.77264049 -60.81695537 102.6302971 -57.50390625 102.546875 C-52.98997566 102.347731 -50.03193614 101.73421036 -46.42578125 98.9765625 C-42.39291981 94.27155749 -41.37558353 90.02753943 -41.42578125 83.9765625 C-42.07661506 80.80538828 -43.18780544 77.90667756 -44.3984375 74.91015625 C-44.71856308 74.07299576 -45.03868866 73.23583527 -45.36851501 72.37330627 C-46.39047111 69.7128556 -47.43855829 67.06366296 -48.48828125 64.4140625 C-49.16650536 62.66410485 -49.84295217 60.9134573 -50.51757812 59.16210938 C-51.83989781 55.73627621 -53.17025996 52.31376565 -54.50830078 48.89404297 C-56.33708065 44.21319206 -58.14282355 39.52419427 -59.921875 34.82421875 C-60.17743668 34.15660019 -60.43299835 33.48898163 -60.69630432 32.8011322 C-62.42578125 28.20985721 -62.42578125 28.20985721 -62.42578125 25.9765625 C-63.41578125 25.9765625 -64.40578125 25.9765625 -65.42578125 25.9765625 C-65.2357251 25.39318115 -65.04566895 24.8097998 -64.84985352 24.20874023 C-64.15008649 20.52539544 -65.96520031 17.3950686 -67.36328125 14.0390625 C-67.94273305 12.63732876 -68.51457947 11.23242268 -69.078125 9.82421875 C-69.33585693 9.20554932 -69.59358887 8.58687988 -69.85913086 7.94946289 C-70.42578125 5.9765625 -70.42578125 5.9765625 -70.42578125 0.9765625 C-63.16578125 0.9765625 -55.90578125 0.9765625 -48.42578125 0.9765625 C-45.79790961 7.54624159 -43.28437954 14.0600656 -41.0078125 20.74609375 C-40.70509933 21.63012375 -40.40238617 22.51415375 -40.09049988 23.42497253 C-39.45820024 25.27399954 -38.82721535 27.12347663 -38.19750977 28.97338867 C-37.23428049 31.80080614 -36.26484401 34.62604432 -35.29492188 37.45117188 C-34.67801222 39.2576851 -34.06146291 41.06432143 -33.4453125 42.87109375 C-33.01252739 44.13056572 -33.01252739 44.13056572 -32.57099915 45.41548157 C-31.27143434 49.2474902 -30.07197213 52.96815175 -29.42578125 56.9765625 C-26.33413975 51.21971282 -23.70829301 45.42507957 -22.42578125 38.9765625 C-22.75578125 38.3165625 -23.08578125 37.6565625 -23.42578125 36.9765625 C-22.43578125 36.9765625 -21.44578125 36.9765625 -20.42578125 36.9765625 C-20.2541748 36.32824463 -20.08256836 35.67992676 -19.90576172 35.01196289 C-17.95908325 27.75540002 -15.8402391 20.56972322 -13.55078125 13.4140625 C-13.22464844 12.33576172 -12.89851562 11.25746094 -12.5625 10.14648438 C-12.23121094 9.11974609 -11.89992188 8.09300781 -11.55859375 7.03515625 C-11.26871582 6.11017334 -10.97883789 5.18519043 -10.68017578 4.23217773 C-9.42578125 1.9765625 -9.42578125 1.9765625 -7.0690918 0.65893555 C-4.50570251 -0.00280575 -2.62491245 -0.18884262 0 0 Z " fill="#0080E3" transform="translate(882.42578125,456.0234375)"/>
<path d="M0 0 C5.81101455 -0.0943111 11.38684514 0.19082473 17.12890625 1.07421875 C17.12890625 1.73421875 17.12890625 2.39421875 17.12890625 3.07421875 C18.11890625 3.28046875 19.10890625 3.48671875 20.12890625 3.69921875 C28.39416111 6.13213651 33.1182172 11.8950216 37.68359375 18.90234375 C39.08261556 21.15921506 39.08261556 21.15921506 41.12890625 23.07421875 C45.6344439 35.99147118 46.05965602 51.24573126 41.12890625 64.07421875 C40.86207031 64.77675781 40.59523438 65.47929688 40.3203125 66.203125 C35.97558482 76.07048431 27.54168706 84.00204586 17.640625 88.10546875 C5.88745791 91.86648222 -6.71027412 91.3661288 -17.87109375 86.07421875 C-28.43699945 80.00758179 -35.25453848 70.5757958 -38.87109375 59.07421875 C-41.87975629 45.05918314 -40.50940118 30.31052451 -32.87109375 18.07421875 C-26.74862171 9.53599052 -18.86155703 3.44282037 -8.68359375 0.42578125 C-5.80393869 -0.01816557 -2.90864575 0.07518948 0 0 Z M-13.72265625 27.31640625 C-18.19658728 34.16425987 -18.86962525 43.15111145 -17.52734375 51.11328125 C-16.02033196 57.61854881 -14.25016959 63.90096343 -8.6640625 68.06640625 C-2.77653216 71.37573703 2.77019761 71.38643955 9.18359375 69.77734375 C11.40720126 69.06118192 11.40720126 69.06118192 14.12890625 67.07421875 C14.12890625 66.41421875 14.12890625 65.75421875 14.12890625 65.07421875 C15.11890625 64.74421875 16.10890625 64.41421875 17.12890625 64.07421875 C22.29348222 55.13552957 22.4090127 44.16186698 20.59765625 34.1328125 C18.99314458 28.97919078 16.89273181 24.65058455 12.046875 21.88671875 C2.41073245 17.28438201 -7.01911247 18.46476557 -13.72265625 27.31640625 Z " fill="#007BDA" transform="translate(576.87109375,454.92578125)"/>
<path d="M0 0 C5.29956802 5.44152073 8.70848554 11.24589518 9.75 18.796875 C8.76 20.281875 8.76 20.281875 7.75 21.796875 C5.87614947 21.86379823 3.99851378 21.9117046 2.125 21.8359375 C-2.0265028 21.7676562 -6.1305791 22.32415457 -10.25 22.796875 C-10.50394531 22.24257813 -10.75789062 21.68828125 -11.01953125 21.1171875 C-11.36371094 20.39273437 -11.70789063 19.66828125 -12.0625 18.921875 C-12.39894531 18.20257813 -12.73539063 17.48328125 -13.08203125 16.7421875 C-14.24467097 14.49144694 -14.24467097 14.49144694 -17.25 12.796875 C-22.78441203 11.68999259 -26.96481193 11.36568849 -32.25 13.796875 C-33.85648644 16.75281004 -34.56681824 18.51977822 -33.74609375 21.828125 C-31.44235162 24.85968122 -28.27479522 25.43848203 -24.75 26.421875 C-24.02603027 26.63787354 -23.30206055 26.85387207 -22.55615234 27.07641602 C-18.68285873 28.20609065 -14.86420249 29.10349473 -10.875 29.734375 C-4.11169231 30.95473575 2.09985579 34.61104779 6.6875 39.734375 C11.39598996 46.72576919 12.61192814 52.50081663 11.75 60.796875 C10.294022 67.74916997 6.44283536 73.25426704 0.60546875 77.2734375 C-6.65506499 81.50359515 -13.59110897 83.18974736 -21.9375 83.171875 C-22.72479492 83.17026367 -23.51208984 83.16865234 -24.32324219 83.16699219 C-33.28694114 82.98032471 -42.37791625 80.85085354 -49.25 74.796875 C-53.61715057 69.4697952 -56.02099352 64.55641064 -57.25 57.796875 C-53.84733941 55.52843461 -51.2407882 54.99497507 -47.25 54.171875 C-46.0125 53.91148437 -44.775 53.65109375 -43.5 53.3828125 C-40.25 52.796875 -40.25 52.796875 -37.25 52.796875 C-37.01925781 53.35117187 -36.78851562 53.90546875 -36.55078125 54.4765625 C-34.58430825 59.01508081 -34.58430825 59.01508081 -31 62.234375 C-24.26369527 63.61225551 -19.83110879 64.29769634 -13.25 61.796875 C-10.96069764 59.91548741 -10.96069764 59.91548741 -10.875 56.859375 C-10.92092634 53.76254903 -10.92092634 53.76254903 -12.95214844 52.21069336 C-15.42143931 50.6913921 -17.60378734 49.90113949 -20.390625 49.11328125 C-21.37933594 48.82517578 -22.36804688 48.53707031 -23.38671875 48.24023438 C-24.41410156 47.94955078 -25.44148437 47.65886719 -26.5 47.359375 C-47.59310939 41.38075482 -47.59310939 41.38075482 -54.0625 32.234375 C-57.27673376 25.63673729 -57.66913586 17.09882944 -55.37890625 10.15625 C-52.10474674 3.84409987 -47.59043135 -0.9659282 -40.875 -3.453125 C-40.00875 -3.700625 -39.1425 -3.948125 -38.25 -4.203125 C-37.92 -4.863125 -37.59 -5.523125 -37.25 -6.203125 C-24.78511795 -8.51143649 -10.16000413 -8.55133681 0 0 Z " fill="#007CDC" transform="translate(799.25,462.203125)"/>
<path d="M0 0 C3.82100095 2.84893831 6.25208855 5.08062826 8.31640625 9.3828125 C8.97640625 9.7128125 9.63640625 10.0428125 10.31640625 10.3828125 C11.16796875 12.34375 11.16796875 12.34375 11.94140625 14.7578125 C12.33199219 15.94503906 12.33199219 15.94503906 12.73046875 17.15625 C13.31640625 19.3828125 13.31640625 19.3828125 13.31640625 22.3828125 C10.56802776 22.91388564 7.8182825 23.43297131 5.06640625 23.9453125 C4.28910156 24.09677734 3.51179687 24.24824219 2.7109375 24.40429688 C1.95683594 24.54287109 1.20273437 24.68144531 0.42578125 24.82421875 C-0.26547852 24.95513916 -0.95673828 25.08605957 -1.66894531 25.22094727 C-3.98159025 25.40675478 -5.53120841 25.26236536 -7.68359375 24.3828125 C-8.11671875 23.2690625 -8.54984375 22.1553125 -8.99609375 21.0078125 C-10.38325457 17.18144904 -10.38325457 17.18144904 -13.80859375 15.3828125 C-18.14253332 13.9013597 -22.30986839 14.14162017 -26.68359375 15.3828125 C-29.65714986 17.41353375 -30.49683572 18.42567758 -31.18359375 21.9453125 C-30.90797068 24.44084739 -30.90797068 24.44084739 -29.16015625 25.87890625 C-25.8191136 27.90777284 -22.29676758 28.86052806 -18.55859375 29.8828125 C-17.79740234 30.10074463 -17.03621094 30.31867676 -16.25195312 30.54321289 C-13.06354001 31.45462417 -9.87192149 32.33439232 -6.66015625 33.16015625 C0.29094166 35.01305143 6.61779326 37.6537029 10.953125 43.64453125 C14.43469944 49.99915279 16.26869379 56.59040608 14.8359375 63.80078125 C12.45563073 71.65184834 8.72977819 76.48125408 1.92578125 80.98828125 C-4.83576609 84.60186269 -10.70356694 85.93974592 -18.37109375 85.8828125 C-19.24523926 85.87854248 -20.11938477 85.87427246 -21.02001953 85.86987305 C-31.11309488 85.60690671 -40.55063581 82.88156315 -47.68359375 75.3828125 C-51.58789523 70.28553001 -53.68359375 65.84340334 -53.68359375 59.3828125 C-51.12145821 58.73550446 -48.5589089 58.08991962 -45.99609375 57.4453125 C-44.91424805 57.17170898 -44.91424805 57.17170898 -43.81054688 56.89257812 C-40.11532127 55.96455343 -36.43013906 55.08482789 -32.68359375 54.3828125 C-32.55984375 55.1871875 -32.43609375 55.9915625 -32.30859375 56.8203125 C-32.10234375 57.6659375 -31.89609375 58.5115625 -31.68359375 59.3828125 C-31.02359375 59.7128125 -30.36359375 60.0428125 -29.68359375 60.3828125 C-29.47734375 61.0221875 -29.27109375 61.6615625 -29.05859375 62.3203125 C-27.22541329 65.07008319 -25.20886796 65.54374426 -22.05078125 66.203125 C-17.80592108 66.52534211 -13.70753763 65.72911343 -9.68359375 64.3828125 C-7.50027686 62.62144895 -7.50027686 62.62144895 -7.48828125 60.4375 C-7.51148438 59.71820312 -7.5346875 58.99890625 -7.55859375 58.2578125 C-7.59984375 56.9790625 -7.64109375 55.7003125 -7.68359375 54.3828125 C-10.98359375 53.7228125 -14.28359375 53.0628125 -17.68359375 52.3828125 C-17.68359375 51.7228125 -17.68359375 51.0628125 -17.68359375 50.3828125 C-18.73546875 50.3209375 -19.78734375 50.2590625 -20.87109375 50.1953125 C-31.5605166 48.83070533 -43.16374795 43.82980616 -50.12109375 35.4453125 C-53.7327213 28.36652251 -54.51930716 22.10584348 -52.68359375 14.3828125 C-49.10168352 6.46294869 -42.81727722 1.12385021 -34.99609375 -2.4296875 C-24.02026771 -6.36441759 -10.14507387 -6.1136253 0 0 Z " fill="#017AD8" transform="translate(949.68359375,459.6171875)"/>
<path d="M0 0 C1.28648437 -0.01417969 2.57296875 -0.02835937 3.8984375 -0.04296875 C7.625 0.1875 7.625 0.1875 13.625 2.1875 C13.295 8.7875 12.965 15.3875 12.625 22.1875 C10.315 21.5275 8.005 20.8675 5.625 20.1875 C3.1607037 20.11237165 3.1607037 20.11237165 0.9375 20.5 C0.21175781 20.59925781 -0.51398437 20.69851563 -1.26171875 20.80078125 C-3.32778613 21.17886012 -5.34471128 21.65128379 -7.375 22.1875 C-8.55531839 26.03593308 -8.70711239 29.94641143 -8.9375 33.9375 C-9.081875 36.33 -9.22625 38.7225 -9.375 41.1875 C-2.115 41.1875 5.145 41.1875 12.625 41.1875 C12.645625 44.136875 12.66625 47.08625 12.6875 50.125 C12.696604 51.05562256 12.70570801 51.98624512 12.71508789 52.94506836 C12.71758545 53.67346924 12.72008301 54.40187012 12.72265625 55.15234375 C12.72789307 55.9012085 12.73312988 56.65007324 12.73852539 57.42163086 C12.625 59.1875 12.625 59.1875 11.625 60.1875 C5.025 60.1875 -1.575 60.1875 -8.375 60.1875 C-8.705 82.2975 -9.035 104.4075 -9.375 127.1875 C-12.11402726 128.10050909 -13.7494827 128.31596608 -16.5703125 128.3203125 C-17.36824219 128.32160156 -18.16617188 128.32289063 -18.98828125 128.32421875 C-19.81714844 128.32035156 -20.64601563 128.31648437 -21.5 128.3125 C-22.33660156 128.31636719 -23.17320312 128.32023438 -24.03515625 128.32421875 C-30.24835126 128.31414874 -30.24835126 128.31414874 -31.375 127.1875 C-31.49337436 125.24566214 -31.5423959 123.29956556 -31.56445312 121.35424805 C-31.58117065 120.10592697 -31.59788818 118.8576059 -31.6151123 117.57145691 C-31.62179428 116.89998312 -31.62847626 116.22850933 -31.63536072 115.53668785 C-31.65634907 113.43931831 -31.68337769 111.3421051 -31.71203613 109.24482727 C-31.77182659 104.78827818 -31.82389101 100.33165595 -31.875 95.875 C-31.93425002 90.7217747 -31.9966532 85.56862523 -32.06687927 80.41553688 C-32.09341219 78.3505101 -32.11425688 76.28547566 -32.1348877 74.22038269 C-32.15160522 72.96260513 -32.16832275 71.70482758 -32.18554688 70.40893555 C-32.19807495 69.30164597 -32.21060303 68.19435638 -32.22351074 67.05351257 C-32.29525855 63.96532734 -32.29525855 63.96532734 -33.375 60.1875 C-37.005 60.1875 -40.635 60.1875 -44.375 60.1875 C-44.54487681 58.31278812 -44.71074776 56.43771305 -44.875 54.5625 C-44.9678125 53.51835937 -45.060625 52.47421875 -45.15625 51.3984375 C-45.36624355 48.31603212 -45.41209727 45.27584771 -45.375 42.1875 C-42.36009443 41.18253148 -40.33318308 41.08414697 -37.1875 41.125 C-36.28644531 41.13402344 -35.38539063 41.14304687 -34.45703125 41.15234375 C-33.76996094 41.16394531 -33.08289063 41.17554688 -32.375 41.1875 C-32.33761719 39.9809375 -32.30023437 38.774375 -32.26171875 37.53125 C-32.19600781 35.91663822 -32.12956229 34.30205622 -32.0625 32.6875 C-32.02866211 31.50027344 -32.02866211 31.50027344 -31.99414062 30.2890625 C-31.56937451 20.86697786 -28.49730347 13.12658998 -21.5625 6.5 C-14.75031402 1.55782586 -8.34245818 0.04162903 0 0 Z " fill="#0080E3" transform="translate(666.375,414.8125)"/>
<path d="M0 0 C3.47914941 -0.02887814 6.95826831 -0.04675687 10.4375 -0.0625 C11.92733398 -0.07506836 11.92733398 -0.07506836 13.44726562 -0.08789062 C14.39150391 -0.09111328 15.33574219 -0.09433594 16.30859375 -0.09765625 C17.62041626 -0.10551147 17.62041626 -0.10551147 18.95874023 -0.11352539 C21 0 21 0 22 1 C22.09534958 4.13559886 22.12550879 7.24913613 22.11352539 10.38500977 C22.11367142 11.37026642 22.11381744 12.35552307 22.1139679 13.37063599 C22.11326832 16.64424807 22.10547385 19.91780404 22.09765625 23.19140625 C22.09579223 25.45442168 22.09436825 27.71743751 22.09336853 29.98045349 C22.0895421 35.94978948 22.07971075 41.91910132 22.06866455 47.88842773 C22.05845312 53.97444329 22.05387149 60.06046273 22.04882812 66.14648438 C22.03808859 78.0976686 22.02049078 90.04882851 22 102 C37.345 101.505 37.345 101.505 53 101 C53 100.67 53 100.34 53 100 C56.71599191 99.79913557 57.77208445 99.8480563 61 102 C61 101.34 61 100.68 61 100 C65.55384615 99.63076923 65.55384615 99.63076923 67.8125 101.5 C68.204375 101.995 68.59625 102.49 69 103 C68.34 103 67.68 103 67 103 C67 107.29 67 111.58 67 116 C67.66 116 68.32 116 69 116 C68 119 68 119 67 121 C67.66 121 68.32 121 69 121 C68.67 121.66 68.34 122.32 68 123 C45.56 123 23.12 123 0 123 C-2 117 -2 117 -1 114 C-0.90600828 111.99750883 -0.87206681 109.99199997 -0.87060547 107.98730469 C-0.86745331 106.74881775 -0.86430115 105.51033081 -0.86105347 104.23431396 C-0.86284415 102.88016728 -0.86489533 101.52602093 -0.8671875 100.171875 C-0.86651358 98.78045637 -0.86554282 97.38903786 -0.86428833 95.99761963 C-0.86281356 93.07896811 -0.86495753 90.16034718 -0.86962891 87.24169922 C-0.87530488 83.51511551 -0.87205938 79.78860417 -0.86605644 76.06202316 C-0.86242675 73.18627385 -0.86360081 70.31054141 -0.86618423 67.43479156 C-0.86684795 66.06178021 -0.86604462 64.68876728 -0.86370468 63.31575775 C-0.86114093 61.38726331 -0.8657466 59.45876346 -0.87060547 57.53027344 C-0.87140106 56.4356781 -0.87219666 55.34108276 -0.87301636 54.21331787 C-1.00972602 50.75388325 -1.48272456 47.42111932 -2 44 C-2.01416997 42.22095264 -1.97619313 40.44050433 -1.87890625 38.6640625 C-1.83056641 37.68977295 -1.78222656 36.7154834 -1.73242188 35.71166992 C-1.67634766 34.69306885 -1.62027344 33.67446777 -1.5625 32.625 C-1.15690335 24.43607874 -0.8913225 16.28906688 -1.03735352 8.09033203 C-1.07673346 5.07986901 -0.96267231 2.88801693 0 0 Z " fill="#0081E5" transform="translate(467,420)"/>
<path d="M0 0 C0 6.93 0 13.86 0 21 C7.26 20.67 14.52 20.34 22 20 C23.16903873 23.50711619 23.16839619 26.36782386 23.1875 30.0625 C23.20167969 31.31160156 23.21585938 32.56070313 23.23046875 33.84765625 C23 37 23 37 21 39 C18.93701172 39.22705078 18.93701172 39.22705078 16.4296875 39.1953125 C15.53378906 39.18886719 14.63789062 39.18242187 13.71484375 39.17578125 C12.77769531 39.15902344 11.84054687 39.14226562 10.875 39.125 C9.93011719 39.11597656 8.98523438 39.10695313 8.01171875 39.09765625 C5.67422708 39.07404522 3.33723877 39.04111516 1 39 C0.92557981 44.85324352 0.87127018 50.7062087 0.83520508 56.55981445 C0.82016276 58.5491211 0.79972377 60.53839483 0.77368164 62.52758789 C0.73709754 65.39477689 0.72022782 68.26152559 0.70703125 71.12890625 C0.69154739 72.01147598 0.67606354 72.89404572 0.66011047 73.80335999 C0.65863196 79.28656456 1.28008925 83.18949118 4 88 C7.05181069 89.51973152 7.05181069 89.51973152 10 90 C10.33 89.34 10.66 88.68 11 88 C11 88.66 11 89.32 11 90 C14.3 89.01 17.6 88.02 21 87 C22.1482685 89.296537 22.11561175 90.58313167 22.09765625 93.1328125 C22.09443359 93.93847656 22.09121094 94.74414062 22.08789062 95.57421875 C22.07532227 96.83685547 22.07532227 96.83685547 22.0625 98.125 C22.05798828 98.97449219 22.05347656 99.82398438 22.04882812 100.69921875 C22.03702874 102.79950909 22.01909306 104.8997633 22 107 C16.62402292 109.21571469 11.77920616 109.33362604 6.0625 109.3125 C4.76022461 109.33666992 4.76022461 109.33666992 3.43164062 109.36132812 C-4.35151814 109.36721109 -10.26673567 107.57831124 -16 102 C-19.68723621 96.68640708 -21.12905297 92.16982181 -21.11352539 85.77246094 C-21.11344986 84.73168396 -21.11337433 83.69090698 -21.11329651 82.61859131 C-21.10813522 81.50179993 -21.10297394 80.38500854 -21.09765625 79.234375 C-21.0962413 78.08584045 -21.09482635 76.93730591 -21.09336853 75.75396729 C-21.08777143 72.08595169 -21.07521944 68.41799715 -21.0625 64.75 C-21.05748463 62.26302171 -21.05292178 59.77604247 -21.04882812 57.2890625 C-21.03780295 51.19268481 -21.02054027 45.09635276 -21 39 C-26.94 39.495 -26.94 39.495 -33 40 C-33 39.34 -33 38.68 -33 38 C-33.66 38 -34.32 38 -35 38 C-35 37.34 -35 36.68 -35 36 C-34.34 36 -33.68 36 -33 36 C-33 31.05 -33 26.1 -33 21 C-25.5 19.875 -25.5 19.875 -21 21 C-21 14.4 -21 7.8 -21 1 C-17.720625 0.835 -14.44125 0.67 -11.0625 0.5 C-10.02746338 0.44779297 -8.99242676 0.39558594 -7.92602539 0.34179688 C-6.71160767 0.28088867 -6.71160767 0.28088867 -5.47265625 0.21875 C-4.64000244 0.17685547 -3.80734863 0.13496094 -2.94946289 0.09179688 C-1.96692123 0.04553067 -0.98363035 0 0 0 Z " fill="#007FE1" transform="translate(715,436)"/>
<path d="M0 0 C1.28648437 -0.01417969 2.57296875 -0.02835937 3.8984375 -0.04296875 C7.625 0.1875 7.625 0.1875 13.625 2.1875 C13.295 8.7875 12.965 15.3875 12.625 22.1875 C10.315 21.5275 8.005 20.8675 5.625 20.1875 C3.1607037 20.11237165 3.1607037 20.11237165 0.9375 20.5 C0.21175781 20.59925781 -0.51398437 20.69851563 -1.26171875 20.80078125 C-3.32778613 21.17886012 -5.34471128 21.65128379 -7.375 22.1875 C-4.80422402 19.49987057 -3.46269575 18.24003076 0.375 18.0546875 C1.4475 18.05726563 2.52 18.05984375 3.625 18.0625 C5.23375 18.05863281 5.23375 18.05863281 6.875 18.0546875 C9.625 18.1875 9.625 18.1875 11.625 19.1875 C11.625 13.5775 11.625 7.9675 11.625 2.1875 C-6.40005547 1.76019986 -6.40005547 1.76019986 -21.9609375 9.5703125 C-28.26255717 16.23618765 -28.85349968 24.52891549 -29.0625 33.1875 C-29.09666016 34.15300781 -29.13082031 35.11851562 -29.16601562 36.11328125 C-29.24771763 38.4709677 -29.31305221 40.82921183 -29.375 43.1875 C-33.995 43.1875 -38.615 43.1875 -43.375 43.1875 C-43.375 48.1375 -43.375 53.0875 -43.375 58.1875 C-38.755 58.1875 -34.135 58.1875 -29.375 58.1875 C-29.375 80.6275 -29.375 103.0675 -29.375 126.1875 C-23.435 126.1875 -17.495 126.1875 -11.375 126.1875 C-11.38023682 124.16310791 -11.38547363 122.13871582 -11.39086914 120.05297852 C-11.40740688 113.37937981 -11.41847196 106.70578022 -11.42681217 100.03216648 C-11.43204041 95.98424258 -11.43913699 91.93633959 -11.45043945 87.88842773 C-11.46127043 83.98514029 -11.46727728 80.08187301 -11.46987724 76.1785717 C-11.47173111 74.68616353 -11.475351 73.19375652 -11.48073006 71.70135689 C-11.48794331 69.61801861 -11.48899083 67.53476469 -11.48852539 65.45141602 C-11.490746 64.26338882 -11.49296661 63.07536163 -11.49525452 61.85133362 C-11.375 59.1875 -11.375 59.1875 -10.375 58.1875 C-8.74027118 58.10049658 -7.10185945 58.08048937 -5.46484375 58.08984375 C-3.98081055 58.09467773 -3.98081055 58.09467773 -2.46679688 58.09960938 C-1.42587891 58.10798828 -0.38496094 58.11636719 0.6875 58.125 C2.25467773 58.13176758 2.25467773 58.13176758 3.85351562 58.13867188 C6.4440666 58.15050087 9.03450559 58.16698311 11.625 58.1875 C11.625 58.8475 11.625 59.5075 11.625 60.1875 C5.025 60.1875 -1.575 60.1875 -8.375 60.1875 C-8.705 82.2975 -9.035 104.4075 -9.375 127.1875 C-12.11402726 128.10050909 -13.7494827 128.31596608 -16.5703125 128.3203125 C-17.36824219 128.32160156 -18.16617188 128.32289063 -18.98828125 128.32421875 C-19.81714844 128.32035156 -20.64601563 128.31648437 -21.5 128.3125 C-22.33660156 128.31636719 -23.17320312 128.32023438 -24.03515625 128.32421875 C-30.24835126 128.31414874 -30.24835126 128.31414874 -31.375 127.1875 C-31.49337436 125.24566214 -31.5423959 123.29956556 -31.56445312 121.35424805 C-31.58117065 120.10592697 -31.59788818 118.8576059 -31.6151123 117.57145691 C-31.62179428 116.89998312 -31.62847626 116.22850933 -31.63536072 115.53668785 C-31.65634907 113.43931831 -31.68337769 111.3421051 -31.71203613 109.24482727 C-31.77182659 104.78827818 -31.82389101 100.33165595 -31.875 95.875 C-31.93425002 90.7217747 -31.9966532 85.56862523 -32.06687927 80.41553688 C-32.09341219 78.3505101 -32.11425688 76.28547566 -32.1348877 74.22038269 C-32.15160522 72.96260513 -32.16832275 71.70482758 -32.18554688 70.40893555 C-32.19807495 69.30164597 -32.21060303 68.19435638 -32.22351074 67.05351257 C-32.29525855 63.96532734 -32.29525855 63.96532734 -33.375 60.1875 C-37.005 60.1875 -40.635 60.1875 -44.375 60.1875 C-44.54487681 58.31278812 -44.71074776 56.43771305 -44.875 54.5625 C-44.9678125 53.51835937 -45.060625 52.47421875 -45.15625 51.3984375 C-45.36624355 48.31603212 -45.41209727 45.27584771 -45.375 42.1875 C-42.36009443 41.18253148 -40.33318308 41.08414697 -37.1875 41.125 C-36.28644531 41.13402344 -35.38539063 41.14304687 -34.45703125 41.15234375 C-33.76996094 41.16394531 -33.08289063 41.17554688 -32.375 41.1875 C-32.33761719 39.9809375 -32.30023437 38.774375 -32.26171875 37.53125 C-32.19600781 35.91663822 -32.12956229 34.30205622 -32.0625 32.6875 C-32.02866211 31.50027344 -32.02866211 31.50027344 -31.99414062 30.2890625 C-31.56937451 20.86697786 -28.49730347 13.12658998 -21.5625 6.5 C-14.75031402 1.55782586 -8.34245818 0.04162903 0 0 Z " fill="#045A9F" transform="translate(666.375,414.8125)"/>
<path d="M0 0 C3.47914941 -0.02887814 6.95826831 -0.04675687 10.4375 -0.0625 C11.92733398 -0.07506836 11.92733398 -0.07506836 13.44726562 -0.08789062 C14.39150391 -0.09111328 15.33574219 -0.09433594 16.30859375 -0.09765625 C17.62041626 -0.10551147 17.62041626 -0.10551147 18.95874023 -0.11352539 C21 0 21 0 22 1 C22.09534958 4.13559886 22.12550879 7.24913613 22.11352539 10.38500977 C22.11367142 11.37026642 22.11381744 12.35552307 22.1139679 13.37063599 C22.11326832 16.64424807 22.10547385 19.91780404 22.09765625 23.19140625 C22.09579223 25.45442168 22.09436825 27.71743751 22.09336853 29.98045349 C22.0895421 35.94978948 22.07971075 41.91910132 22.06866455 47.88842773 C22.05845312 53.97444329 22.05387149 60.06046273 22.04882812 66.14648438 C22.03808859 78.0976686 22.02049078 90.04882851 22 102 C37.345 101.505 37.345 101.505 53 101 C53 100.67 53 100.34 53 100 C56.71599191 99.79913557 57.77208445 99.8480563 61 102 C61 101.34 61 100.68 61 100 C65.55384615 99.63076923 65.55384615 99.63076923 67.8125 101.5 C68.204375 101.995 68.59625 102.49 69 103 C68.34 103 67.68 103 67 103 C67 107.29 67 111.58 67 116 C67.66 116 68.32 116 69 116 C68 119 68 119 67 121 C67.66 121 68.32 121 69 121 C68.67 121.66 68.34 122.32 68 123 C45.56 123 23.12 123 0 123 C-2 117 -2 117 -1 114 C-0.90600828 111.99750883 -0.87206681 109.99199997 -0.87060547 107.98730469 C-0.86745331 106.74881775 -0.86430115 105.51033081 -0.86105347 104.23431396 C-0.86284415 102.88016728 -0.86489533 101.52602093 -0.8671875 100.171875 C-0.86651358 98.78045637 -0.86554282 97.38903786 -0.86428833 95.99761963 C-0.86281356 93.07896811 -0.86495753 90.16034718 -0.86962891 87.24169922 C-0.87530488 83.51511551 -0.87205938 79.78860417 -0.86605644 76.06202316 C-0.86242675 73.18627385 -0.86360081 70.31054141 -0.86618423 67.43479156 C-0.86684795 66.06178021 -0.86604462 64.68876728 -0.86370468 63.31575775 C-0.86114093 61.38726331 -0.8657466 59.45876346 -0.87060547 57.53027344 C-0.87140106 56.4356781 -0.87219666 55.34108276 -0.87301636 54.21331787 C-1.00972602 50.75388325 -1.48272456 47.42111932 -2 44 C-2.01416997 42.22095264 -1.97619313 40.44050433 -1.87890625 38.6640625 C-1.83056641 37.68977295 -1.78222656 36.7154834 -1.73242188 35.71166992 C-1.67634766 34.69306885 -1.62027344 33.67446777 -1.5625 32.625 C-1.15690335 24.43607874 -0.8913225 16.28906688 -1.03735352 8.09033203 C-1.07673346 5.07986901 -0.96267231 2.88801693 0 0 Z M1 2 C1 41.27 1 80.54 1 121 C22.45 121 43.9 121 66 121 C66 115.06 66 109.12 66 103 C51.15 103 36.3 103 21 103 C21 69.67 21 36.34 21 2 C14.4 2 7.8 2 1 2 Z " fill="#03457C" transform="translate(467,420)"/>
<path d="M0 0 C5.8130991 0.5555575 10.56068703 2.22037906 15.9140625 4.5 C16.75849915 4.85203491 17.60293579 5.20406982 18.47296143 5.56677246 C21.19366181 6.70335846 23.90932894 7.85145592 26.625 9 C28.48556907 9.77994313 30.34640947 10.5592393 32.20751953 11.33789062 C43.34956531 16.00677043 54.47305178 20.72061744 65.5546875 25.53125 C71.65195362 28.13053805 76.46943759 29.16369475 82.83837891 27.06445312 C86.19921919 25.69843757 89.50652883 24.2439433 92.8125 22.75 C94.03801445 22.20844828 95.26409943 21.668186 96.49072266 21.12915039 C99.04046313 20.00550127 101.58599668 18.87302155 104.12841797 17.73291016 C107.9546015 16.01744162 111.79086253 14.32544679 115.62890625 12.63671875 C127.2194007 7.64804734 127.2194007 7.64804734 138.58203125 2.17578125 C141.28118167 0.8632703 143.03487267 0.66112831 146 1 C148.07230625 3.07230625 147.18837496 7.49189788 147.203125 10.34765625 C147.20882507 11.19291367 147.21452515 12.03817108 147.22039795 12.90904236 C147.22986796 14.70554344 147.23638983 16.50206205 147.24023438 18.29858398 C147.24987403 21.02684787 147.28084996 23.75433716 147.3125 26.48242188 C147.31903658 28.2291622 147.32428447 29.97590792 147.328125 31.72265625 C147.3404718 32.5313063 147.3528186 33.33995636 147.36553955 34.17311096 C147.34398483 39.75357783 146.21758436 43.87357438 144 49 C143.34 48.67 142.68 48.34 142 48 C142.48110229 47.28384521 142.48110229 47.28384521 142.97192383 46.55322266 C144.48676784 42.7911142 144.37770151 39.1710067 144.44921875 35.1484375 C144.47095657 34.29319489 144.4926944 33.43795227 144.51509094 32.55679321 C144.5589262 30.75313545 144.5981444 28.94936035 144.63305664 27.14550781 C144.68744357 24.37787141 144.75760576 21.61096588 144.83007812 18.84375 C144.87072251 17.09116717 144.91046709 15.3385632 144.94921875 13.5859375 C144.96997971 12.7557309 144.99074066 11.92552429 145.01213074 11.07015991 C145.20553851 6.90379016 145.20553851 6.90379016 144 3 C140.46308353 4.39003179 136.98563681 5.87576344 133.51953125 7.43359375 C132.44993164 7.91256104 131.38033203 8.39152832 130.27832031 8.88500977 C129.13459961 9.39733154 127.99087891 9.90965332 126.8125 10.4375 C114.12981628 16.09947403 101.38474192 21.60306835 88.54882812 26.91064453 C87.01303183 27.56703563 85.49000914 28.25661247 83.99804688 29.00732422 C78.62648138 31.68553712 74.22850502 31.04954438 68.75 29.26855469 C66.3061085 28.36125997 63.90382288 27.38355435 61.5 26.375 C60.62053711 26.0145459 59.74107422 25.6540918 58.83496094 25.28271484 C52.98250411 22.86982262 47.17154986 20.36522947 41.38549805 17.79760742 C35.06687307 15.0006576 28.69229286 12.34145568 22.3125 9.6875 C21.2719043 9.25453613 20.23130859 8.82157227 19.15917969 8.37548828 C16.44086955 7.24678897 13.72254782 6.11843923 11 5 C10.19199951 4.64655518 9.38399902 4.29311035 8.55151367 3.92895508 C5.71630729 2.89671316 2.98280142 2.41620485 0 2 C0.00523682 2.8971875 0.01047363 3.794375 0.01586914 4.71875 C0.03301853 8.0808986 0.04550216 11.443 0.05493164 14.80517578 C0.05992785 16.25407652 0.06672709 17.70297231 0.07543945 19.15185547 C0.16225376 33.97156783 0.16225376 33.97156783 -1 41 C-1.33 41 -1.66 41 -2 41 C-2.04941382 35.64316151 -2.08572607 30.2864555 -2.10986328 24.92944336 C-2.11992491 23.10682871 -2.1335756 21.28423021 -2.15087891 19.46166992 C-2.17512021 16.84289565 -2.18648138 14.22433469 -2.1953125 11.60546875 C-2.20563507 10.78974899 -2.21595764 9.97402924 -2.22659302 9.1335907 C-2.2273686 5.22869244 -2.21650661 3.32475992 0 0 Z " fill="#045293" transform="translate(180,463)"/>
<path d="M0 0 C2.46062979 3.69094468 2.26816777 5.67044195 2.25 10.0625 C2.25773438 11.93615234 2.25773438 11.93615234 2.265625 13.84765625 C2 17 2 17 0 19 C-2.06298828 19.22705078 -2.06298828 19.22705078 -4.5703125 19.1953125 C-5.46621094 19.18886719 -6.36210938 19.18242187 -7.28515625 19.17578125 C-8.22230469 19.15902344 -9.15945313 19.14226562 -10.125 19.125 C-11.54232422 19.11146484 -11.54232422 19.11146484 -12.98828125 19.09765625 C-15.32577292 19.07404522 -17.66276123 19.04111516 -20 19 C-20.07442019 24.85324352 -20.12872982 30.7062087 -20.16479492 36.55981445 C-20.17983724 38.5491211 -20.20027623 40.53839483 -20.22631836 42.52758789 C-20.26290246 45.39477689 -20.27977218 48.26152559 -20.29296875 51.12890625 C-20.30845261 52.01147598 -20.32393646 52.89404572 -20.33988953 53.80335999 C-20.34136804 59.28656456 -19.71991075 63.18949118 -17 68 C-13.94818931 69.51973152 -13.94818931 69.51973152 -11 70 C-10.67 69.34 -10.34 68.68 -10 68 C-10 68.66 -10 69.32 -10 70 C-6.7 69.01 -3.4 68.02 0 67 C1.1482685 69.296537 1.11561175 70.58313167 1.09765625 73.1328125 C1.09443359 73.93847656 1.09121094 74.74414062 1.08789062 75.57421875 C1.07532227 76.83685547 1.07532227 76.83685547 1.0625 78.125 C1.05798828 78.97449219 1.05347656 79.82398438 1.04882812 80.69921875 C1.03702874 82.79950909 1.01909306 84.8997633 1 87 C-4.37597708 89.21571469 -9.22079384 89.33362604 -14.9375 89.3125 C-16.23977539 89.33666992 -16.23977539 89.33666992 -17.56835938 89.36132812 C-25.61115956 89.36740734 -30.85152761 87.40320301 -37 82 C-36.505 81.01 -36.505 81.01 -36 80 C-35.39671875 80.42152344 -34.7934375 80.84304688 -34.171875 81.27734375 C-32.97304688 82.09912109 -32.97304688 82.09912109 -31.75 82.9375 C-30.56664062 83.75541016 -30.56664062 83.75541016 -29.359375 84.58984375 C-24.85246911 87.28354081 -20.89770387 87.13547277 -15.6875 87.125 C-14.41261719 87.12757813 -13.13773438 87.13015625 -11.82421875 87.1328125 C-7.45354307 87.04928781 -7.45354307 87.04928781 -1 86 C-1 80.72 -1 75.44 -1 70 C-4.465 70.99 -4.465 70.99 -8 72 C-11.14814681 72.19094514 -13.97822695 71.9234819 -17 71 C-19.69006939 68.37718234 -21.8917756 65.82225111 -22.12025452 61.97518921 C-22.11803391 61.14468048 -22.11581329 60.31417175 -22.11352539 59.45849609 C-22.11344986 58.51767181 -22.11337433 57.57684753 -22.11329651 56.60751343 C-22.10555458 55.08089584 -22.10555458 55.08089584 -22.09765625 53.5234375 C-22.0962413 52.48305328 -22.09482635 51.44266907 -22.09336853 50.37075806 C-22.08775866 47.03880979 -22.07520447 43.70692805 -22.0625 40.375 C-22.05748627 38.11979264 -22.05292314 35.86458422 -22.04882812 33.609375 C-22.03863574 28.07287025 -22.0190622 22.53650983 -22 17 C-14.74 17 -7.48 17 0 17 C0 12.05 0 7.1 0 2 C-1.98 2 -3.96 2 -6 2 C-6 1.67 -6 1.34 -6 1 C-4.02 0.67 -2.04 0.34 0 0 Z " fill="#054A83" transform="translate(736,456)"/>
<path d="M0 0 C0.79599609 0.0515625 1.59199219 0.103125 2.41210938 0.15625 C3.22873047 0.22070312 4.04535156 0.28515625 4.88671875 0.3515625 C6.1406543 0.43664062 6.1406543 0.43664062 7.41992188 0.5234375 C9.47208803 0.66415746 11.52327993 0.8189618 13.57421875 0.9765625 C12.97749003 4.24031471 12.20318692 7.28415476 11.078125 10.40405273 C10.7720784 11.2578804 10.4660318 12.11170807 10.15071106 12.9914093 C9.8160936 13.91334579 9.48147614 14.83528229 9.13671875 15.78515625 C8.78449753 16.76401291 8.43227631 17.74286957 8.06938171 18.75138855 C6.90837029 21.97375569 5.74174904 25.19405197 4.57421875 28.4140625 C4.17627106 29.51393494 3.77832336 30.61380737 3.36831665 31.74700928 C0.86347862 38.67002412 -1.64956894 45.59002538 -4.16595459 52.5088501 C-5.40076513 55.90770484 -6.63186936 59.30787873 -7.86181641 62.70849609 C-9.7797511 68.00934323 -11.70760778 73.3064768 -13.64331055 78.6008606 C-14.3683451 80.58777455 -15.09039363 82.57578088 -15.80932617 84.56491089 C-16.8146281 87.34344717 -17.83159056 90.11744611 -18.8515625 92.890625 C-19.14049881 93.69686813 -19.42943512 94.50311127 -19.72712708 95.33378601 C-21.70362607 100.65610497 -24.24510449 105.27641009 -27.42578125 109.9765625 C-27.42578125 106.57542153 -26.63236116 104.98814903 -25.16723633 101.9453125 C-22.64752234 96.54571184 -20.54077064 91.09338253 -18.5625 85.4765625 C-18.21297775 84.49763031 -17.86345551 83.51869812 -17.50334167 82.51010132 C-16.75606419 80.41649694 -16.01075331 78.32218971 -15.26727295 76.22723389 C-13.29575103 70.67366716 -11.30837434 65.12578844 -9.3203125 59.578125 C-8.91635254 58.45032623 -8.51239258 57.32252747 -8.09619141 56.16055298 C-3.91979879 44.52449054 0.37413189 32.9330449 4.69921875 21.3515625 C5.05045807 20.41070801 5.40169739 19.46985352 5.76358032 18.50048828 C7.69668034 13.32441754 9.63474448 8.15025545 11.57421875 2.9765625 C4.97421875 2.9765625 -1.62578125 2.9765625 -8.42578125 2.9765625 C-9.08578125 5.9465625 -9.74578125 8.9165625 -10.42578125 11.9765625 C-11.03422396 13.95933174 -11.67847991 15.93176032 -12.37109375 17.88671875 C-12.72558594 18.89541016 -13.08007812 19.90410156 -13.4453125 20.94335938 C-13.81011719 21.96494141 -14.17492187 22.98652344 -14.55078125 24.0390625 C-14.92332031 25.09544922 -15.29585937 26.15183594 -15.6796875 27.24023438 C-16.59043502 29.82068567 -17.5058783 32.39936394 -18.42578125 34.9765625 C-20.19586123 29.66632256 -17.22322536 24.21354816 -15.50341797 19.04272461 C-14.80425891 16.9245982 -14.13608573 14.79825499 -13.46875 12.66992188 C-13.02661011 11.32230153 -12.58265878 9.97527387 -12.13671875 8.62890625 C-11.73759277 7.40163818 -11.3384668 6.17437012 -10.92724609 4.90991211 C-9.42578125 1.9765625 -9.42578125 1.9765625 -7.03295898 0.55932617 C-4.52003434 -0.00236979 -2.55825387 -0.18404704 0 0 Z " fill="#044D88" transform="translate(882.42578125,456.0234375)"/>
<path d="M0 0 C1.28648437 -0.01417969 2.57296875 -0.02835937 3.8984375 -0.04296875 C7.625 0.1875 7.625 0.1875 13.625 2.1875 C13.295 8.7875 12.965 15.3875 12.625 22.1875 C10.315 21.5275 8.005 20.8675 5.625 20.1875 C3.1607037 20.11237165 3.1607037 20.11237165 0.9375 20.5 C0.21175781 20.59925781 -0.51398437 20.69851563 -1.26171875 20.80078125 C-3.32778613 21.17886012 -5.34471128 21.65128379 -7.375 22.1875 C-4.80422402 19.49987057 -3.46269575 18.24003076 0.375 18.0546875 C1.4475 18.05726563 2.52 18.05984375 3.625 18.0625 C5.23375 18.05863281 5.23375 18.05863281 6.875 18.0546875 C9.625 18.1875 9.625 18.1875 11.625 19.1875 C11.625 13.5775 11.625 7.9675 11.625 2.1875 C-6.40005547 1.76019986 -6.40005547 1.76019986 -21.9609375 9.5703125 C-28.26255717 16.23618765 -28.85349968 24.52891549 -29.0625 33.1875 C-29.09666016 34.15300781 -29.13082031 35.11851562 -29.16601562 36.11328125 C-29.24771763 38.4709677 -29.31305221 40.82921183 -29.375 43.1875 C-33.995 43.1875 -38.615 43.1875 -43.375 43.1875 C-43.375 48.1375 -43.375 53.0875 -43.375 58.1875 C-39.085 58.1875 -34.795 58.1875 -30.375 58.1875 C-30.375 58.5175 -30.375 58.8475 -30.375 59.1875 C-34.995 59.1875 -39.615 59.1875 -44.375 59.1875 C-45.51785714 47.47321429 -45.51785714 47.47321429 -45.375 42.1875 C-42.36009443 41.18253148 -40.33318308 41.08414697 -37.1875 41.125 C-36.28644531 41.13402344 -35.38539063 41.14304687 -34.45703125 41.15234375 C-33.76996094 41.16394531 -33.08289063 41.17554688 -32.375 41.1875 C-32.33761719 39.9809375 -32.30023437 38.774375 -32.26171875 37.53125 C-32.19600781 35.91663822 -32.12956229 34.30205622 -32.0625 32.6875 C-32.02866211 31.50027344 -32.02866211 31.50027344 -31.99414062 30.2890625 C-31.56937451 20.86697786 -28.49730347 13.12658998 -21.5625 6.5 C-14.75031402 1.55782586 -8.34245818 0.04162903 0 0 Z " fill="#05508E" transform="translate(666.375,414.8125)"/>
<path d="M0 0 C2.22527381 1.29778799 4.36426077 2.29127211 6.76171875 3.21484375 C7.66921875 3.62734375 8.57671875 4.03984375 9.51171875 4.46484375 C10.00671875 5.94984375 10.00671875 5.94984375 10.51171875 7.46484375 C12.51188341 8.67366471 12.51188341 8.67366471 14.51171875 9.46484375 C10.25776284 9.46484375 7.56787677 7.16253785 4.07421875 4.96484375 C-22.11823635 -10.92568 -50.99804431 -16.06592583 -81.36328125 -13.91015625 C-82.42087646 -13.84103027 -83.47847168 -13.7719043 -84.56811523 -13.70068359 C-90.22457674 -13.22182368 -90.22457674 -13.22182368 -95.16796875 -10.65234375 C-96.92174431 -7.84007643 -96.78361484 -5.78382578 -96.48828125 -2.53515625 C-97.14828125 -2.86515625 -97.80828125 -3.19515625 -98.48828125 -3.53515625 C-98.97414243 -9.85135162 -98.97414243 -9.85135162 -96.80078125 -12.91015625 C-73.99866107 -28.93326773 -20.81124731 -12.25335122 0 0 Z " fill="#04569A" transform="translate(229.48828125,593.53515625)"/>
<path d="M0 0 C3.55521796 3.55521796 4.77636985 8.60192526 6.53320312 13.24707031 C7.24220283 15.10457228 7.98034593 16.95086483 8.71875 18.796875 C11.33302982 25.69316487 12.92914059 30.07067572 10 37 C7.44589999 41.57976553 4.39371953 45.84373273 -0.765625 47.6015625 C-5.44218131 48.43549387 -10.27033207 48.05140943 -15 48 C-15.33 53.28 -15.66 58.56 -16 64 C-0.75629649 63.59984337 -0.75629649 63.59984337 14 60 C8.28366258 66.66595699 -2.81547985 66.45616549 -10.93359375 67.08203125 C-13.95758361 67.00113471 -15.48183535 66.60246841 -18 65 C-18.02683987 62.02077407 -18.04676037 59.04178705 -18.0625 56.0625 C-18.07087891 55.21236328 -18.07925781 54.36222656 -18.08789062 53.48632812 C-18.09111328 52.67744141 -18.09433594 51.86855469 -18.09765625 51.03515625 C-18.10289307 50.2862915 -18.10812988 49.53742676 -18.11352539 48.76586914 C-18 47 -18 47 -17 46 C-13.6919318 45.79607799 -10.39117412 45.6537346 -7.078125 45.5703125 C-2.56419441 45.3711685 0.39384511 44.75764786 4 42 C8.0116506 37.31974096 9.26327981 33.05543574 9 27 C7.87925399 22.72292543 6.25383577 18.70512959 4.5625 14.625 C3.70568062 12.49377319 2.85262887 10.36102662 2.00390625 8.2265625 C1.62049072 7.29408691 1.2370752 6.36161133 0.84204102 5.40087891 C0 3 0 3 0 0 Z " fill="#055492" transform="translate(832,513)"/>
<path d="M0 0 C7.26 0 14.52 0 22 0 C24.62787164 6.56967909 27.14140171 13.0835031 29.41796875 19.76953125 C29.72068192 20.65356125 30.02339508 21.53759125 30.33528137 22.44841003 C30.96758101 24.29743704 31.5985659 26.14691413 32.22827148 27.99682617 C33.19150076 30.82424364 34.16093724 33.64948182 35.13085938 36.47460938 C35.74776903 38.2811226 36.36431834 40.08775893 36.98046875 41.89453125 C37.41325386 43.15400322 37.41325386 43.15400322 37.8547821 44.43891907 C39.15434691 48.2709277 40.35380912 51.99158925 41 56 C44.0916415 50.24315032 46.71748824 44.44851707 48 38 C47.67 37.34 47.34 36.68 47 36 C47.99 36 48.98 36 50 36 C50.495 35.01 50.495 35.01 51 34 C49.32590062 42.67487859 46.97145143 52.05709713 43 60 C42.34 60 41.68 60 41 60 C34.02528493 40.76234538 27.39713584 21.43640422 21 2 C14.73 2 8.46 2 2 2 C2.33 4.64 2.66 7.28 3 10 C1 8 1 8 0 0 Z " fill="#034E8B" transform="translate(812,457)"/>
<path d="M0 0 C0 0.33 0 0.66 0 1 C-1.2595752 0.98952637 -2.51915039 0.97905273 -3.81689453 0.96826172 C-8.55449506 0.93166713 -13.29208348 0.90895803 -18.02978516 0.89013672 C-20.06821809 0.88016805 -22.10663706 0.86658824 -24.14501953 0.84912109 C-39.17043658 0.72372488 -53.32546184 1.26925393 -67.875 5.4375 C-68.73778564 5.68121338 -69.60057129 5.92492676 -70.48950195 6.17602539 C-79.14837436 8.77900877 -87.2397144 12.52916098 -95.35693359 16.48022461 C-96.3258252 16.94952393 -97.2947168 17.41882324 -98.29296875 17.90234375 C-99.1543042 18.33023193 -100.01563965 18.75812012 -100.90307617 19.19897461 C-101.59506104 19.46331299 -102.2870459 19.72765137 -103 20 C-103.66 19.67 -104.32 19.34 -105 19 C-89.01254623 9.79944738 -72.18565386 3.27208215 -54 0 C-53.1121582 -0.16016602 -52.22431641 -0.32033203 -51.30957031 -0.48535156 C-33.95592712 -3.46144516 -17.32626735 -3.15023043 0 0 Z " fill="#025091" transform="translate(372,566)"/>
<path d="M0 0 C29.86688019 -0.37968848 29.86688019 -0.37968848 43.6875 0.875 C45.02868896 0.99270752 45.02868896 0.99270752 46.39697266 1.11279297 C50.38299871 1.52007274 53.50794303 1.90051585 57 4 C58.59633757 7.19267515 58.36932376 10.52693615 58 14 C57 16 57 16 55 17 C47.9152679 17.65599371 40.97379804 16.19064845 34 15 C34 14.67 34 14.34 34 14 C39.72843781 13.90760584 45.1621344 14.1660192 50.8359375 14.9765625 C53.3007709 15.20658722 53.3007709 15.20658722 56 13 C55.505 9.535 55.505 9.535 55 6 C48.75233986 3.73027897 42.84210291 3.27155759 36.25 2.8125 C35.02893555 2.72500488 33.80787109 2.63750977 32.54980469 2.54736328 C19.99220003 1.7582771 7.54551582 2.20210772 -5 3 C-5 2.67 -5 2.34 -5 2 C-3.35 2 -1.7 2 0 2 C0 1.34 0 0.68 0 0 Z " fill="#04579A" transform="translate(323,577)"/>
<path d="M0 0 C1 2 1 2 0.4375 3.875 C-0.1579611 5.98144209 -0.1579611 5.98144209 0.50390625 7.96875 C2.78670918 11.0681169 5.94221316 11.6324026 9.5 12.625 C10.22396973 12.84099854 10.94793945 13.05699707 11.69384766 13.27954102 C15.56714127 14.40921565 19.38579751 15.30661973 23.375 15.9375 C30.13830769 17.15786075 36.34985579 20.81417279 40.9375 25.9375 C45.63061423 32.90606356 46.90006052 38.72181175 46 47 C45.26739566 49.9445059 44.3293639 52.23901344 43 55 C42.01 55.495 42.01 55.495 41 56 C41.34224609 54.87464844 41.34224609 54.87464844 41.69140625 53.7265625 C44.0907435 45.18363077 45.37895483 37.74234181 40.9375 29.6875 C35.27256253 21.92439894 26.72477476 19.67814572 17.8125 17.25 C16.21245117 16.79560547 16.21245117 16.79560547 14.58007812 16.33203125 C8.97536718 14.7322679 8.97536718 14.7322679 3.27612305 13.54199219 C1 13 1 13 -0.875 10.875 C-2.31692192 7.19008844 -1.87948898 4.81111892 -1 1 C-0.67 0.67 -0.34 0.34 0 0 Z " fill="#035596" transform="translate(765,476)"/>
<path d="M0 0 C0.99 0.33 1.98 0.66 3 1 C2.34 1 1.68 1 1 1 C1 5.95 1 10.9 1 16 C4.96 16 8.92 16 13 16 C13.01981934 17.46751709 13.03963867 18.93503418 13.06005859 20.44702148 C13.13645263 25.92082116 13.22511704 31.39436668 13.31738281 36.86791992 C13.35553336 39.23147544 13.39040987 41.59508626 13.421875 43.95874023 C13.46782887 47.36722505 13.52577269 50.77533367 13.5859375 54.18359375 C13.59748871 55.23083115 13.60903992 56.27806854 13.62094116 57.35704041 C13.74270561 63.48738356 14.4142956 69.07886879 16 75 C16.33450912 76.33303883 16.66818064 77.66628909 17 79 C13.81916993 76.39750267 12.99256015 73.95693551 12 70 C11.730037 66.01133257 11.76740598 62.03524181 11.8046875 58.0390625 C11.8075174 56.89335785 11.81034729 55.7476532 11.81326294 54.56723022 C11.82442865 50.91971245 11.84952701 47.27244315 11.875 43.625 C11.88503445 41.14713897 11.89415949 38.66927408 11.90234375 36.19140625 C11.92435624 30.12750891 11.95886162 24.06379654 12 18 C8.04 18.33 4.08 18.66 0 19 C0 18.34 0 17.68 0 17 C-0.66 17 -1.32 17 -2 17 C-2 16.34 -2 15.68 -2 15 C-1.34 15 -0.68 15 0 15 C0 10.05 0 5.1 0 0 Z " fill="#03315C" transform="translate(682,457)"/>
<path d="M0 0 C0.79599609 0.0515625 1.59199219 0.103125 2.41210938 0.15625 C3.22873047 0.22070312 4.04535156 0.28515625 4.88671875 0.3515625 C6.1406543 0.43664062 6.1406543 0.43664062 7.41992188 0.5234375 C9.47208803 0.66415746 11.52327993 0.8189618 13.57421875 0.9765625 C12.85165213 5.23077495 11.57013497 9.16025419 10.13671875 13.2265625 C9.48896484 15.09054687 9.48896484 15.09054687 8.828125 16.9921875 C7.57421875 19.9765625 7.57421875 19.9765625 5.57421875 20.9765625 C6.00793755 19.47546482 6.4464451 17.97575073 6.88671875 16.4765625 C7.13035156 15.64125 7.37398437 14.8059375 7.625 13.9453125 C8.80847853 10.24389817 10.20974883 6.61514895 11.57421875 2.9765625 C4.97421875 2.9765625 -1.62578125 2.9765625 -8.42578125 2.9765625 C-9.08578125 5.9465625 -9.74578125 8.9165625 -10.42578125 11.9765625 C-11.03422396 13.95933174 -11.67847991 15.93176032 -12.37109375 17.88671875 C-12.72558594 18.89541016 -13.08007812 19.90410156 -13.4453125 20.94335938 C-13.81011719 21.96494141 -14.17492187 22.98652344 -14.55078125 24.0390625 C-14.92332031 25.09544922 -15.29585937 26.15183594 -15.6796875 27.24023438 C-16.59043502 29.82068567 -17.5058783 32.39936394 -18.42578125 34.9765625 C-20.19586123 29.66632256 -17.22322536 24.21354816 -15.50341797 19.04272461 C-14.80425891 16.9245982 -14.13608573 14.79825499 -13.46875 12.66992188 C-13.02661011 11.32230153 -12.58265878 9.97527387 -12.13671875 8.62890625 C-11.73759277 7.40163818 -11.3384668 6.17437012 -10.92724609 4.90991211 C-9.42578125 1.9765625 -9.42578125 1.9765625 -7.03295898 0.55932617 C-4.52003434 -0.00236979 -2.55825387 -0.18404704 0 0 Z " fill="#035293" transform="translate(882.42578125,456.0234375)"/>
<path d="M0 0 C0.66 0 1.32 0 2 0 C2 15.51 2 31.02 2 47 C1.34 46.67 0.68 46.34 0 46 C0.01740234 44.49759766 0.01740234 44.49759766 0.03515625 42.96484375 C0.04454398 41.62239772 0.05364312 40.27994964 0.0625 38.9375 C0.07410156 37.62652344 0.08570313 36.31554687 0.09765625 34.96484375 C0.09425411 31.10863308 0.09425411 31.10863308 -0.53125 27.78125 C-1.20548517 22.34241964 -0.84452196 17.02464954 -0.5625 11.5625 C-0.51029297 10.44939453 -0.45808594 9.33628906 -0.40429688 8.18945312 C-0.27540537 5.45929677 -0.14047673 2.72958065 0 0 Z " fill="#035397" transform="translate(466,440)"/>
<path d="M0 0 C0.66 0 1.32 0 2 0 C2.00410889 0.83249268 2.00821777 1.66498535 2.01245117 2.52270508 C2.03943957 5.61514406 2.08852916 8.70621973 2.15258789 11.7980957 C2.18716046 13.79290866 2.19624594 15.78811014 2.20507812 17.78320312 C2.23408203 19.03681641 2.26308594 20.29042969 2.29296875 21.58203125 C2.3086792 22.73936768 2.32438965 23.8967041 2.34057617 25.08911133 C2.71847145 28.21849666 2.71847145 28.21849666 5.54418945 29.90112305 C6.35460693 30.26375244 7.16502441 30.62638184 8 31 C7.34 31.33 6.68 31.66 6 32 C4.02 31.34 2.04 30.68 0 30 C0 20.1 0 10.2 0 0 Z " fill="#0359A0" transform="translate(349,455)"/>
<path d="M0 0 C0.66 0.33 1.32 0.66 2 1 C-12.83102579 11.69826959 -12.83102579 11.69826959 -19.78515625 11.41796875 C-26.6860434 10.11568493 -32.49355291 6.25752161 -37 1 C-33.70426861 2.13290766 -31.04469925 3.61261649 -28.1875 5.5625 C-24.200015 8.0761866 -20.76469005 9.4746078 -16 9 C-10.77103344 7.25360687 -6.19324647 3.93206583 -1.6640625 0.85546875 C-1.11492187 0.57316406 -0.56578125 0.29085937 0 0 Z " fill="#025497" transform="translate(272,612)"/>
<path d="M0 0 C4.84284284 0.09783521 7.53797184 1.1156582 11.25 4.375 C13.66636294 7.03299923 14.25 7.72794333 14.25 11.375 C14.91 11.21 15.57 11.045 16.25 10.875 C19.98099794 10.25316701 23.46873378 10.31091074 27.25 10.375 C24.13089144 12.16775866 21.57317572 12.71790718 18 13 C16.66195312 13.11214844 16.66195312 13.11214844 15.296875 13.2265625 C14.62140625 13.27554687 13.9459375 13.32453125 13.25 13.375 C12.99605469 12.82070313 12.74210938 12.26640625 12.48046875 11.6953125 C12.13628906 10.97085937 11.79210937 10.24640625 11.4375 9.5 C11.10105469 8.78070313 10.76460937 8.06140625 10.41796875 7.3203125 C9.25532903 5.06957194 9.25532903 5.06957194 6.25 3.375 C3.05193335 2.9146236 3.05193335 2.9146236 -0.4375 2.75 C-2.20673828 2.63785156 -2.20673828 2.63785156 -4.01171875 2.5234375 C-4.91535156 2.47445313 -5.81898438 2.42546875 -6.75 2.375 C-4.28003576 -0.09496424 -3.41102667 0.05168222 0 0 Z " fill="#055391" transform="translate(775.75,471.625)"/>
<path d="M0 0 C1.17080252 3.51240756 0.77349427 4.40112686 -0.3984375 7.81640625 C-0.87023437 9.20956055 -0.87023437 9.20956055 -1.3515625 10.63085938 C-1.85816406 12.08202148 -1.85816406 12.08202148 -2.375 13.5625 C-2.705 14.53380859 -3.035 15.50511719 -3.375 16.50585938 C-5.80163118 23.60326236 -5.80163118 23.60326236 -7 26 C-7.66 26 -8.32 26 -9 26 C-9.66 24.02 -10.32 22.04 -11 20 C-10.34 19.67 -9.68 19.34 -9 19 C-9 19.99 -9 20.98 -9 22 C-5.9083585 16.24315032 -3.28251176 10.44851707 -2 4 C-2.33 3.34 -2.66 2.68 -3 2 C-2.01 2 -1.02 2 0 2 C0 1.34 0 0.68 0 0 Z " fill="#045CA2" transform="translate(862,491)"/>
<path d="M0 0 C6.6 0 13.2 0 20 0 C20 0.66 20 1.32 20 2 C14.06 2 8.12 2 2 2 C2.33 4.64 2.66 7.28 3 10 C1 8 1 8 0 0 Z " fill="#045CA4" transform="translate(812,457)"/>
<path d="M0 0 C0.99 0.33 1.98 0.66 3 1 C2.34 1 1.68 1 1 1 C1 5.95 1 10.9 1 16 C4.96 16 8.92 16 13 16 C13 16.66 13 17.32 13 18 C6.565 18.495 6.565 18.495 0 19 C0 18.34 0 17.68 0 17 C-0.66 17 -1.32 17 -2 17 C-2 16.34 -2 15.68 -2 15 C-1.34 15 -0.68 15 0 15 C0 10.05 0 5.1 0 0 Z " fill="#044E8F" transform="translate(682,457)"/>
<path d="M0 0 C0.2475 0.5775 0.495 1.155 0.75 1.75 C2.60736894 5.09326408 4.55757759 7.51919253 8.25 8.75 C8.8275 8.8325 9.405 8.915 10 9 C10.33 8.34 10.66 7.68 11 7 C11 7.66 11 8.32 11 9 C15.95 7.515 15.95 7.515 21 6 C20.67 6.99 20.34 7.98 20 9 C14.69321853 11.21115894 9.56434728 11.68975343 4 10 C1.23835636 7.37643854 0.19839048 5.59517145 -1 2 C-0.67 1.34 -0.34 0.68 0 0 Z " fill="#03599F" transform="translate(715,517)"/>
<path d="M0 0 C8.91 0 17.82 0 27 0 C27 0.33 27 0.66 27 1 C23.35475481 1.33997574 19.70872831 1.67074937 16.0625 2 C14.53012695 2.14308594 14.53012695 2.14308594 12.96679688 2.2890625 C6.94822031 2.82746552 1.04236648 3.10081112 -5 3 C-5 2.67 -5 2.34 -5 2 C-3.35 2 -1.7 2 0 2 C0 1.34 0 0.68 0 0 Z " fill="#044E8D" transform="translate(323,577)"/>
<path d="M0 0 C0.639375 0.268125 1.27875 0.53625 1.9375 0.8125 C3.4534375 1.4003125 3.4534375 1.4003125 5 2 C5.65484375 2.32226562 6.3096875 2.64453125 6.984375 2.9765625 C10.65427615 4.57726407 12.84980903 5.40256684 16.734375 4.04296875 C18.4976901 3.11799277 20.23395108 2.13890309 21.93359375 1.1015625 C22.61550781 0.73804688 23.29742187 0.37453125 24 0 C24.66 0.33 25.32 0.66 26 1 C16.85227195 7.5886559 16.85227195 7.5886559 11.3125 7.1875 C6.63944704 6.28116055 3.58841177 4.05396747 0 1 C0 0.67 0 0.34 0 0 Z " fill="#02559A" transform="translate(241,586)"/>
<path d="M0 0 C1.2065625 0.0309375 1.2065625 0.0309375 2.4375 0.0625 C2.1075 1.3825 1.7775 2.7025 1.4375 4.0625 C1.1075 3.4025 0.7775 2.7425 0.4375 2.0625 C-4.18375872 3.89618583 -8.77885753 5.79202465 -13.375 7.6875 C-14.16326172 8.01234375 -14.95152344 8.3371875 -15.76367188 8.671875 C-17.69670912 9.46852065 -19.62961749 10.26547899 -21.5625 11.0625 C-21.5625 10.4025 -21.5625 9.7425 -21.5625 9.0625 C-21.02246338 8.82539307 -20.48242676 8.58828613 -19.92602539 8.34399414 C-17.49128456 7.27340074 -15.05812968 6.19924971 -12.625 5.125 C-11.34979492 4.56522461 -11.34979492 4.56522461 -10.04882812 3.99414062 C-9.23994141 3.63642578 -8.43105469 3.27871094 -7.59765625 2.91015625 C-6.8487915 2.58023682 -6.09992676 2.25031738 -5.32836914 1.91040039 C-1.42192587 0.03468112 -1.42192587 0.03468112 0 0 Z " fill="#045CA6" transform="translate(323.5625,463.9375)"/>
<path d="M0 0 C1.72502467 4.08558475 2.10359366 5.58562534 1 10 C-0.485 5.545 -0.485 5.545 -2 1 C-4.62538284 1.14053872 -7.25017427 1.28718947 -9.875 1.4375 C-10.99455078 1.49647461 -10.99455078 1.49647461 -12.13671875 1.55664062 C-16.19986864 1.71573624 -16.19986864 1.71573624 -20 3 C-20 2.01 -20 1.02 -20 0 C-17.04196565 -0.19421438 -14.08379837 -0.38066186 -11.125 -0.5625 C-10.28324219 -0.61857422 -9.44148437 -0.67464844 -8.57421875 -0.73242188 C-7.76855469 -0.78076172 -6.96289062 -0.82910156 -6.1328125 -0.87890625 C-5.01737061 -0.94960327 -5.01737061 -0.94960327 -3.87939453 -1.02172852 C-2 -1 -2 -1 0 0 Z " fill="#018AF0" transform="translate(834,459)"/>
<path d="M0 0 C1.05960938 0.00676758 1.05960938 0.00676758 2.140625 0.01367188 C3.88545275 0.02546125 5.630237 0.04339676 7.375 0.0625 C7.045 1.3825 6.715 2.7025 6.375 4.0625 C5.570625 3.711875 4.76625 3.36125 3.9375 3 C-1.75008297 1.50326764 -7.00916734 2.57595606 -12.625 4.0625 C-8.61625596 -0.12845967 -5.62708668 -0.06748351 0 0 Z " fill="#065A9D" transform="translate(671.625,432.9375)"/>
<path d="M0 0 C4.84757723 0.59358089 9.32956577 1.58218961 14 3 C15.31181974 3.3773728 16.62430432 3.75244348 17.9375 4.125 C19.4534375 4.558125 19.4534375 4.558125 21 5 C21 5.33 21 5.66 21 6 C15.57878002 6.27908468 11.62142765 5.42721053 6.5625 3.5 C5.92634766 3.26152344 5.29019531 3.02304687 4.63476562 2.77734375 C3.08597268 2.19509076 1.54239747 1.59898931 0 1 C0 0.67 0 0.34 0 0 Z " fill="#045CA2" transform="translate(322,437)"/>
<path d="M0 0 C3.86933162 0.57323431 6.15222057 2.38953552 9 5 C9 5.66 9 6.32 9 7 C9.99 7.33 10.98 7.66 12 8 C11.01 8.495 11.01 8.495 10 9 C8.51444617 8.07265428 7.03672494 7.13275187 5.5625 6.1875 C4.73878906 5.66542969 3.91507813 5.14335937 3.06640625 4.60546875 C1 3 1 3 0 0 Z " fill="#0466B0" transform="translate(901,495)"/>
<path d="M0 0 C0.66 0.33 1.32 0.66 2 1 C0.41906946 2.12837409 -1.16484716 3.25256518 -2.75 4.375 C-3.63171875 5.00148438 -4.5134375 5.62796875 -5.421875 6.2734375 C-11.1884058 10.1352657 -11.1884058 10.1352657 -14.25 9.625 C-14.8275 9.41875 -15.405 9.2125 -16 9 C-14.845 8.443125 -13.69 7.88625 -12.5 7.3125 C-8.68790053 5.42679955 -5.17966106 3.24355463 -1.6640625 0.85546875 C-1.11492187 0.57316406 -0.56578125 0.29085937 0 0 Z " fill="#0460A8" transform="translate(272,612)"/>
<path d="M0 0 C1.77260631 0.45142775 3.5430368 0.91140523 5.3125 1.375 C6.79169922 1.75785156 6.79169922 1.75785156 8.30078125 2.1484375 C11 3 11 3 14 5 C13.01 5 12.02 5 11 5 C11 5.66 11 6.32 11 7 C10.34 7 9.68 7 9 7 C9 6.01 9 5.02 9 4 C6.03 3.01 3.06 2.02 0 1 C0 0.67 0 0.34 0 0 Z " fill="#0188EC" transform="translate(303,443)"/>
<path d="M0 0 C2.4375 0.8125 2.4375 0.8125 5 2 C5.33 2.99 5.66 3.98 6 5 C8.00016466 6.20882096 8.00016466 6.20882096 10 7 C5.94654898 7 4.1784671 5.41839888 1 3 C0.67 2.01 0.34 1.02 0 0 Z " fill="#0367B7" transform="translate(234,596)"/>
<path d="M0 0 C0.99 0.495 0.99 0.495 2 1 C2.33 1.99 2.66 2.98 3 4 C4.65 4.33 6.3 4.66 8 5 C5 7 5 7 2.8125 6.625 C2.214375 6.41875 1.61625 6.2125 1 6 C0.67 4.02 0.34 2.04 0 0 Z " fill="#05538F" transform="translate(941,478)"/>
<path d="M0 0 C2.31 0 4.62 0 7 0 C7 0.33 7 0.66 7 1 C4.69 1 2.38 1 0 1 C0 0.67 0 0.34 0 0 Z " fill="#0784DD" transform="translate(494,520)"/>
<path d="M0 0 C1.98 0 3.96 0 6 0 C6 0.33 6 0.66 6 1 C4.02 1 2.04 1 0 1 C0 0.67 0 0.34 0 0 Z " fill="#0783DB" transform="translate(513,520)"/>
<path d="M0 0 C1.98 0 3.96 0 6 0 C6 0.33 6 0.66 6 1 C4.02 1 2.04 1 0 1 C0 0.67 0 0.34 0 0 Z " fill="#0884DB" transform="translate(502,520)"/>
<path d="M0 0 C0 0.99 0 1.98 0 3 C-0.66 2.67 -1.32 2.34 -2 2 C-1.34 1.34 -0.68 0.68 0 0 Z " fill="#0682E0" transform="translate(941,520)"/>
<path d="M0 0 C1.32 0.33 2.64 0.66 4 1 C3.01 1.33 2.02 1.66 1 2 C0.67 1.34 0.34 0.68 0 0 Z " fill="#087DD7" transform="translate(801,484)"/>
<path d="M0 0 C4 1 4 1 4 1 Z " fill="#0984DE" transform="translate(272,312)"/>
<path d="M0 0 C3 1 3 1 3 1 Z " fill="#0684DE" transform="translate(490,520)"/>
<path d="M0 0 C0.66 0.66 1.32 1.32 2 2 C1.34 2 0.68 2 0 2 C0 1.34 0 0.68 0 0 Z " fill="#0680DB" transform="translate(786,515)"/>
<path d="M0 0 C0.66 0.66 1.32 1.32 2 2 C1.34 2 0.68 2 0 2 C0 1.34 0 0.68 0 0 Z " fill="#0480DE" transform="translate(180,467)"/>
<path d="M0 0 C3 1 3 1 3 1 Z " fill="#0984E1" transform="translate(208,312)"/>
<path d="M0 0 C3 1 3 1 3 1 Z " fill="#0A84E1" transform="translate(182,312)"/>
<path d="M0 0 C2 1 2 1 2 1 Z " fill="#0A78CA" transform="translate(137,653)"/>
<path d="M0 0 C2 1 2 1 2 1 Z " fill="#0D76C7" transform="translate(129,651)"/>
<path d="M0 0 C2 1 2 1 2 1 Z " fill="#0780DF" transform="translate(257,619)"/>
<path d="M0 0 C2 1 2 1 2 1 Z " fill="#0782DB" transform="translate(265,584)"/>
<path d="M0 0 C2 1 2 1 2 1 Z " fill="#0680DD" transform="translate(241,584)"/>
<path d="M0 0 C2 1 2 1 2 1 Z " fill="#077FDD" transform="translate(192,583)"/>
<path d="M0 0 C2 1 2 1 2 1 Z " fill="#0C74C4" transform="translate(825,580)"/>
<path d="M0 0 C2 1 2 1 2 1 Z " fill="#0880E2" transform="translate(359,563)"/>
<path d="" fill="#0782E0" transform="translate(0,0)"/>
<path d="M0 0 C2 1 2 1 2 1 Z " fill="#057EDB" transform="translate(237,556)"/>
<path d="" fill="#077DD9" transform="translate(0,0)"/>
<path d="M0 0 C2 1 2 1 2 1 Z " fill="#087FDF" transform="translate(300,543)"/>
<path d="" fill="#0B7DD6" transform="translate(0,0)"/>
<path d="" fill="#0E79CA" transform="translate(0,0)"/>
<path d="M0 0 C2 1 2 1 2 1 Z " fill="#097FD7" transform="translate(926,524)"/>
<path d="M0 0 C2 1 2 1 2 1 Z " fill="#087BDA" transform="translate(732,523)"/>
<path d="" fill="#097CD5" transform="translate(0,0)"/>
<path d="" fill="#0780DD" transform="translate(0,0)"/>
<path d="M0 0 C2 1 2 1 2 1 Z " fill="#0783DC" transform="translate(510,520)"/>
<path d="M0 0 C2 1 2 1 2 1 Z " fill="#097FDB" transform="translate(751,515)"/>
<path d="M0 0 C2 1 2 1 2 1 Z " fill="#0B84DC" transform="translate(800,496)"/>
<path d="" fill="#097DD7" transform="translate(0,0)"/>
<path d="" fill="#0A7BD5" transform="translate(0,0)"/>
<path d="M0 0 C2 1 2 1 2 1 Z " fill="#0680DF" transform="translate(276,487)"/>
<path d="" fill="#087ED7" transform="translate(0,0)"/>
<path d="M0 0 C2 1 2 1 2 1 Z " fill="#0780D9" transform="translate(865,475)"/>
<path d="" fill="#087DD8" transform="translate(0,0)"/>
<path d="" fill="#097DD6" transform="translate(0,0)"/>
<path d="M0 0 C2 1 2 1 2 1 Z " fill="#0B7DD6" transform="translate(616,457)"/>
<path d="M0 0 C2 1 2 1 2 1 Z " fill="#0C7CD0" transform="translate(913,456)"/>
<path d="" fill="#0A7DD4" transform="translate(0,0)"/>
<path d="" fill="#0C7ED9" transform="translate(0,0)"/>
<path d="M0 0 C2 1 2 1 2 1 Z " fill="#097ED6" transform="translate(677,439)"/>
<path d="" fill="#0780DF" transform="translate(0,0)"/>
<path d="M0 0 C2 1 2 1 2 1 Z " fill="#0681E1" transform="translate(196,391)"/>
<path d="M0 0 C2 1 2 1 2 1 Z " fill="#0E7CCE" transform="translate(121,320)"/>
<path d="M0 0 C2 1 2 1 2 1 Z " fill="#0E7ACD" transform="translate(377,315)"/>
<path d="M0 0 C2 1 2 1 2 1 Z " fill="#0A85DF" transform="translate(304,312)"/>
<path d="M0 0 C2 1 2 1 2 1 Z " fill="#0882E0" transform="translate(256,312)"/>
<path d="M0 0 C2 1 2 1 2 1 Z " fill="#0884DF" transform="translate(230,312)"/>
<path d="M0 0 C2 1 2 1 2 1 Z " fill="#0983E0" transform="translate(214,312)"/>
<path d="M0 0 C2 1 2 1 2 1 Z " fill="#0984E1" transform="translate(201,312)"/>
<path d="M0 0 C2 1 2 1 2 1 Z " fill="#0985E2" transform="translate(194,312)"/>
<path d="M0 0 C2 1 2 1 2 1 Z " fill="#0984E1" transform="translate(191,312)"/>
<path d="M0 0 C2 1 2 1 2 1 Z " fill="#0A82DE" transform="translate(177,312)"/>
<path d="" fill="#0879D3" transform="translate(0,0)"/>
<path d="" fill="#0A81DC" transform="translate(0,0)"/>
<path d="" fill="#0A7BD1" transform="translate(0,0)"/>
<path d="" fill="#0E79C9" transform="translate(0,0)"/>
<path d="" fill="#0C79CD" transform="translate(0,0)"/>
<path d="" fill="#0E74C2" transform="translate(0,0)"/>
<path d="" fill="#0B79CD" transform="translate(0,0)"/>
<path d="" fill="#0877D0" transform="translate(0,0)"/>
<path d="" fill="#0C76C9" transform="translate(0,0)"/>
<path d="" fill="#0982DF" transform="translate(0,0)"/>
<path d="" fill="#0781DE" transform="translate(0,0)"/>
<path d="" fill="#107BCF" transform="translate(0,0)"/>
<path d="" fill="#0E7BD1" transform="translate(0,0)"/>
<path d="" fill="#067DDA" transform="translate(0,0)"/>
<path d="" fill="#0981DC" transform="translate(0,0)"/>
<path d="" fill="#0783DF" transform="translate(0,0)"/>
<path d="" fill="#087EDB" transform="translate(0,0)"/>
<path d="" fill="#067FDC" transform="translate(0,0)"/>
<path d="" fill="#097FD9" transform="translate(0,0)"/>
<path d="" fill="#057FDF" transform="translate(0,0)"/>
<path d="" fill="#0982DB" transform="translate(0,0)"/>
<path d="" fill="#057FDF" transform="translate(0,0)"/>
<path d="" fill="#0680DF" transform="translate(0,0)"/>
<path d="" fill="#0782DD" transform="translate(0,0)"/>
<path d="" fill="#0C74C2" transform="translate(0,0)"/>
<path d="" fill="#077DDC" transform="translate(0,0)"/>
<path d="" fill="#0983E0" transform="translate(0,0)"/>
<path d="" fill="#0480E0" transform="translate(0,0)"/>
<path d="" fill="#0882E2" transform="translate(0,0)"/>
<path d="" fill="#0D7ACD" transform="translate(0,0)"/>
<path d="" fill="#027EE0" transform="translate(0,0)"/>
<path d="" fill="#0382DE" transform="translate(0,0)"/>
<path d="" fill="#0780E1" transform="translate(0,0)"/>
<path d="" fill="#0885E1" transform="translate(0,0)"/>
<path d="" fill="#0886E4" transform="translate(0,0)"/>
<path d="" fill="#0682DF" transform="translate(0,0)"/>
<path d="" fill="#0883E2" transform="translate(0,0)"/>
<path d="" fill="#0980DE" transform="translate(0,0)"/>
<path d="" fill="#0883DF" transform="translate(0,0)"/>
<path d="" fill="#0980DE" transform="translate(0,0)"/>
<path d="" fill="#0582DE" transform="translate(0,0)"/>
<path d="" fill="#087FE1" transform="translate(0,0)"/>
<path d="" fill="#0D7DD2" transform="translate(0,0)"/>
<path d="" fill="#0483E0" transform="translate(0,0)"/>
<path d="" fill="#0A80DA" transform="translate(0,0)"/>
<path d="" fill="#0881D9" transform="translate(0,0)"/>
<path d="" fill="#097FD8" transform="translate(0,0)"/>
<path d="" fill="#0B81D8" transform="translate(0,0)"/>
<path d="" fill="#0681E2" transform="translate(0,0)"/>
<path d="" fill="#077DD1" transform="translate(0,0)"/>
<path d="" fill="#0D77D5" transform="translate(0,0)"/>
<path d="" fill="#0581DC" transform="translate(0,0)"/>
<path d="" fill="#037FE1" transform="translate(0,0)"/>
<path d="" fill="#0B7CCE" transform="translate(0,0)"/>
<path d="" fill="#0A75CC" transform="translate(0,0)"/>
<path d="" fill="#0B7BCC" transform="translate(0,0)"/>
<path d="" fill="#087CD3" transform="translate(0,0)"/>
<path d="" fill="#0C7ACB" transform="translate(0,0)"/>
<path d="" fill="#0A7AD3" transform="translate(0,0)"/>
<path d="" fill="#0A76CB" transform="translate(0,0)"/>
<path d="" fill="#0585E0" transform="translate(0,0)"/>
<path d="" fill="#097ED9" transform="translate(0,0)"/>
<path d="" fill="#0B77D2" transform="translate(0,0)"/>
<path d="" fill="#087FDB" transform="translate(0,0)"/>
<path d="" fill="#0882E1" transform="translate(0,0)"/>
<path d="" fill="#057EDE" transform="translate(0,0)"/>
<path d="" fill="#0C77CA" transform="translate(0,0)"/>
<path d="" fill="#0784E4" transform="translate(0,0)"/>
<path d="" fill="#0681E2" transform="translate(0,0)"/>
<path d="" fill="#0A83DC" transform="translate(0,0)"/>
<path d="" fill="#097FDD" transform="translate(0,0)"/>
<path d="" fill="#0A7AD2" transform="translate(0,0)"/>
<path d="" fill="#0981DE" transform="translate(0,0)"/>
<path d="" fill="#0B77C9" transform="translate(0,0)"/>
<path d="" fill="#0A7AD1" transform="translate(0,0)"/>
<path d="" fill="#0A79D3" transform="translate(0,0)"/>
<path d="" fill="#037EE1" transform="translate(0,0)"/>
<path d="" fill="#0781DF" transform="translate(0,0)"/>
<path d="" fill="#0980DA" transform="translate(0,0)"/>
<path d="" fill="#0682DF" transform="translate(0,0)"/>
<path d="" fill="#0681DE" transform="translate(0,0)"/>
<path d="" fill="#0483E0" transform="translate(0,0)"/>
<path d="" fill="#0B7BD0" transform="translate(0,0)"/>
<path d="" fill="#0583DC" transform="translate(0,0)"/>
<path d="" fill="#0685E1" transform="translate(0,0)"/>
<path d="" fill="#0A7FD7" transform="translate(0,0)"/>
<path d="" fill="#0A81DD" transform="translate(0,0)"/>
<path d="" fill="#0D80DA" transform="translate(0,0)"/>
<path d="" fill="#0981DD" transform="translate(0,0)"/>
<path d="" fill="#0882D8" transform="translate(0,0)"/>
<path d="" fill="#067FD9" transform="translate(0,0)"/>
<path d="" fill="#097ED6" transform="translate(0,0)"/>
<path d="" fill="#0681DB" transform="translate(0,0)"/>
<path d="" fill="#097DDB" transform="translate(0,0)"/>
<path d="" fill="#0880D6" transform="translate(0,0)"/>
<path d="" fill="#077ED9" transform="translate(0,0)"/>
<path d="" fill="#0780DA" transform="translate(0,0)"/>
<path d="" fill="#0B7FD8" transform="translate(0,0)"/>
<path d="" fill="#0881DB" transform="translate(0,0)"/>
<path d="" fill="#057DDC" transform="translate(0,0)"/>
<path d="" fill="#087EDB" transform="translate(0,0)"/>
<path d="" fill="#077FD9" transform="translate(0,0)"/>
<path d="" fill="#037DDE" transform="translate(0,0)"/>
<path d="" fill="#097ED9" transform="translate(0,0)"/>
<path d="" fill="#0481DB" transform="translate(0,0)"/>
<path d="" fill="#0B7FD9" transform="translate(0,0)"/>
<path d="" fill="#0889E3" transform="translate(0,0)"/>
<path d="" fill="#067FD9" transform="translate(0,0)"/>
<path d="" fill="#067EDA" transform="translate(0,0)"/>
<path d="" fill="#0D7DD4" transform="translate(0,0)"/>
<path d="" fill="#0583DF" transform="translate(0,0)"/>
<path d="" fill="#0B82DC" transform="translate(0,0)"/>
<path d="" fill="#0B7ED7" transform="translate(0,0)"/>
<path d="" fill="#077EDB" transform="translate(0,0)"/>
<path d="" fill="#097DDB" transform="translate(0,0)"/>
<path d="" fill="#0881DB" transform="translate(0,0)"/>
<path d="" fill="#0D80DB" transform="translate(0,0)"/>
<path d="" fill="#0982DD" transform="translate(0,0)"/>
<path d="" fill="#087CD8" transform="translate(0,0)"/>
<path d="" fill="#0A80DC" transform="translate(0,0)"/>
<path d="" fill="#087CDB" transform="translate(0,0)"/>
<path d="" fill="#087FD8" transform="translate(0,0)"/>
<path d="" fill="#0A7DD9" transform="translate(0,0)"/>
<path d="" fill="#0780DE" transform="translate(0,0)"/>
<path d="" fill="#077FDA" transform="translate(0,0)"/>
<path d="" fill="#0B85E0" transform="translate(0,0)"/>
<path d="" fill="#0880DD" transform="translate(0,0)"/>
<path d="" fill="#087DDF" transform="translate(0,0)"/>
<path d="" fill="#0A81DC" transform="translate(0,0)"/>
<path d="" fill="#057FDA" transform="translate(0,0)"/>
<path d="" fill="#037DD9" transform="translate(0,0)"/>
<path d="" fill="#047AD1" transform="translate(0,0)"/>
<path d="" fill="#0A7FD9" transform="translate(0,0)"/>
<path d="" fill="#087DD6" transform="translate(0,0)"/>
<path d="" fill="#067FD8" transform="translate(0,0)"/>
<path d="" fill="#0B82DE" transform="translate(0,0)"/>
<path d="" fill="#087FD8" transform="translate(0,0)"/>
<path d="" fill="#097FDA" transform="translate(0,0)"/>
<path d="" fill="#0B80D8" transform="translate(0,0)"/>
<path d="" fill="#0684E4" transform="translate(0,0)"/>
<path d="" fill="#087BD4" transform="translate(0,0)"/>
<path d="" fill="#0B86E1" transform="translate(0,0)"/>
<path d="" fill="#077FD9" transform="translate(0,0)"/>
<path d="" fill="#057DD6" transform="translate(0,0)"/>
<path d="" fill="#077DD7" transform="translate(0,0)"/>
<path d="" fill="#0880DC" transform="translate(0,0)"/>
<path d="" fill="#077FDD" transform="translate(0,0)"/>
<path d="" fill="#0B7FD7" transform="translate(0,0)"/>
<path d="" fill="#0A84DE" transform="translate(0,0)"/>
<path d="" fill="#0780DA" transform="translate(0,0)"/>
<path d="" fill="#057FDC" transform="translate(0,0)"/>
<path d="" fill="#0580DC" transform="translate(0,0)"/>
<path d="" fill="#0583E0" transform="translate(0,0)"/>
<path d="" fill="#0880DB" transform="translate(0,0)"/>
<path d="" fill="#0783DE" transform="translate(0,0)"/>
<path d="" fill="#0980DE" transform="translate(0,0)"/>
<path d="" fill="#067FD8" transform="translate(0,0)"/>
<path d="" fill="#0682DB" transform="translate(0,0)"/>
<path d="" fill="#0A81D9" transform="translate(0,0)"/>
<path d="" fill="#057EDA" transform="translate(0,0)"/>
<path d="" fill="#0880DD" transform="translate(0,0)"/>
<path d="" fill="#0B7FDA" transform="translate(0,0)"/>
<path d="" fill="#0A7FD8" transform="translate(0,0)"/>
<path d="" fill="#0A7CD8" transform="translate(0,0)"/>
<path d="" fill="#0781DF" transform="translate(0,0)"/>
<path d="" fill="#0483E2" transform="translate(0,0)"/>
<path d="" fill="#077DD4" transform="translate(0,0)"/>
<path d="" fill="#0B7BD3" transform="translate(0,0)"/>
<path d="" fill="#0586E1" transform="translate(0,0)"/>
<path d="" fill="#0A7FDA" transform="translate(0,0)"/>
<path d="" fill="#0881DC" transform="translate(0,0)"/>
<path d="" fill="#0583E0" transform="translate(0,0)"/>
<path d="" fill="#0483E5" transform="translate(0,0)"/>
<path d="" fill="#057FDE" transform="translate(0,0)"/>
<path d="" fill="#087ED3" transform="translate(0,0)"/>
<path d="" fill="#0A7ED5" transform="translate(0,0)"/>
<path d="" fill="#0D78CE" transform="translate(0,0)"/>
<path d="" fill="#0384E4" transform="translate(0,0)"/>
<path d="" fill="#097ACF" transform="translate(0,0)"/>
<path d="" fill="#0C80D8" transform="translate(0,0)"/>
<path d="" fill="#087FD9" transform="translate(0,0)"/>
<path d="" fill="#0680E4" transform="translate(0,0)"/>
<path d="" fill="#0781E0" transform="translate(0,0)"/>
<path d="" fill="#0481E2" transform="translate(0,0)"/>
<path d="" fill="#0A7FDB" transform="translate(0,0)"/>
<path d="" fill="#0483E4" transform="translate(0,0)"/>
<path d="" fill="#0A7DD5" transform="translate(0,0)"/>
<path d="" fill="#077ED8" transform="translate(0,0)"/>
<path d="" fill="#0381E0" transform="translate(0,0)"/>
<path d="" fill="#0C7DD6" transform="translate(0,0)"/>
<path d="" fill="#097CD6" transform="translate(0,0)"/>
<path d="" fill="#0E81D8" transform="translate(0,0)"/>
<path d="" fill="#077FDC" transform="translate(0,0)"/>
<path d="" fill="#097FD2" transform="translate(0,0)"/>
<path d="" fill="#0876C9" transform="translate(0,0)"/>
<path d="" fill="#0787E3" transform="translate(0,0)"/>
<path d="" fill="#0C84E0" transform="translate(0,0)"/>
<path d="" fill="#0882E1" transform="translate(0,0)"/>
<path d="" fill="#0980D9" transform="translate(0,0)"/>
<path d="" fill="#097DD4" transform="translate(0,0)"/>
<path d="" fill="#0A7CD3" transform="translate(0,0)"/>
<path d="" fill="#0C7ED3" transform="translate(0,0)"/>
<path d="" fill="#037DD8" transform="translate(0,0)"/>
<path d="" fill="#087FDA" transform="translate(0,0)"/>
<path d="" fill="#0F7BCE" transform="translate(0,0)"/>
<path d="" fill="#0984E3" transform="translate(0,0)"/>
<path d="" fill="#0581DE" transform="translate(0,0)"/>
<path d="" fill="#0D77D0" transform="translate(0,0)"/>
<path d="" fill="#0A7DD8" transform="translate(0,0)"/>
<path d="" fill="#0683E0" transform="translate(0,0)"/>
<path d="" fill="#0881DE" transform="translate(0,0)"/>
<path d="" fill="#0E7ACC" transform="translate(0,0)"/>
<path d="" fill="#0B83DB" transform="translate(0,0)"/>
<path d="" fill="#0981D9" transform="translate(0,0)"/>
<path d="" fill="#0882E2" transform="translate(0,0)"/>
<path d="" fill="#0582E1" transform="translate(0,0)"/>
<path d="" fill="#067EDA" transform="translate(0,0)"/>
<path d="" fill="#0B7BD6" transform="translate(0,0)"/>
<path d="" fill="#0D7DD5" transform="translate(0,0)"/>
<path d="" fill="#0780DB" transform="translate(0,0)"/>
<path d="" fill="#0882DF" transform="translate(0,0)"/>
<path d="" fill="#0D79C9" transform="translate(0,0)"/>
<path d="" fill="#0784E5" transform="translate(0,0)"/>
<path d="" fill="#0484EA" transform="translate(0,0)"/>
<path d="" fill="#0781DE" transform="translate(0,0)"/>
<path d="" fill="#0081DF" transform="translate(0,0)"/>
<path d="" fill="#0381E1" transform="translate(0,0)"/>
<path d="" fill="#047FDF" transform="translate(0,0)"/>
<path d="" fill="#047EDB" transform="translate(0,0)"/>
<path d="" fill="#047FE0" transform="translate(0,0)"/>
<path d="" fill="#0480DF" transform="translate(0,0)"/>
<path d="" fill="#0283E7" transform="translate(0,0)"/>
<path d="" fill="#037FDE" transform="translate(0,0)"/>
<path d="" fill="#0C79D0" transform="translate(0,0)"/>
<path d="" fill="#0582E1" transform="translate(0,0)"/>
<path d="" fill="#077FDC" transform="translate(0,0)"/>
<path d="" fill="#0481DF" transform="translate(0,0)"/>
<path d="" fill="#0E79CE" transform="translate(0,0)"/>
<path d="" fill="#097DDD" transform="translate(0,0)"/>
<path d="" fill="#1079CB" transform="translate(0,0)"/>
<path d="" fill="#097BD5" transform="translate(0,0)"/>
<path d="" fill="#0E7CCF" transform="translate(0,0)"/>
<path d="" fill="#1079D1" transform="translate(0,0)"/>
<path d="" fill="#0B7BD0" transform="translate(0,0)"/>
<path d="" fill="#1079CA" transform="translate(0,0)"/>
<path d="" fill="#0E78C8" transform="translate(0,0)"/>
<path d="" fill="#1078CC" transform="translate(0,0)"/>
<path d="" fill="#0E77CB" transform="translate(0,0)"/>
<path d="" fill="#0D76CB" transform="translate(0,0)"/>
<path d="" fill="#107ACD" transform="translate(0,0)"/>
<path d="" fill="#0D7CD1" transform="translate(0,0)"/>
<path d="" fill="#0881DD" transform="translate(0,0)"/>
<path d="" fill="#0A83DF" transform="translate(0,0)"/>
<path d="" fill="#0985DF" transform="translate(0,0)"/>
<path d="" fill="#0A86E1" transform="translate(0,0)"/>
<path d="" fill="#0986E0" transform="translate(0,0)"/>
<path d="" fill="#0786E1" transform="translate(0,0)"/>
<path d="" fill="#0886E3" transform="translate(0,0)"/>
<path d="" fill="#0B86E2" transform="translate(0,0)"/>
<path d="" fill="#0782DD" transform="translate(0,0)"/>
<path d="" fill="#0885E0" transform="translate(0,0)"/>
<path d="" fill="#0884E1" transform="translate(0,0)"/>
<path d="" fill="#0785E2" transform="translate(0,0)"/>
<path d="" fill="#0784DF" transform="translate(0,0)"/>
<path d="" fill="#0985E3" transform="translate(0,0)"/>
<path d="" fill="#0783DE" transform="translate(0,0)"/>
<path d="" fill="#0983E1" transform="translate(0,0)"/>
<path d="" fill="#0785E2" transform="translate(0,0)"/>
<path d="" fill="#0884DE" transform="translate(0,0)"/>
<path d="" fill="#0885DF" transform="translate(0,0)"/>
<path d="" fill="#0883DF" transform="translate(0,0)"/>
<path d="" fill="#0A81DA" transform="translate(0,0)"/>
<path d="" fill="#0C82DA" transform="translate(0,0)"/>
<path d="" fill="#0B83D9" transform="translate(0,0)"/>
<path d="" fill="#0B7AD0" transform="translate(0,0)"/>
</svg>
