<?xml version="1.0" encoding="UTF-8"?>
<svg version="1.1" xmlns="http://www.w3.org/2000/svg" width="1024" height="1024">
<path d="M0 0 C337.92 0 675.84 0 1024 0 C1024 337.92 1024 675.84 1024 1024 C686.08 1024 348.16 1024 0 1024 C0 686.08 0 348.16 0 0 Z " fill="#FCFCFD" transform="translate(0,0)"/>
<path d="M0 0 C2.09312931 -0.00543387 4.18625479 -0.01256355 6.27937317 -0.02124023 C11.91372291 -0.03932616 17.54777653 -0.03246743 23.18213081 -0.01972389 C29.10918029 -0.00951927 35.03620625 -0.01901012 40.96325684 -0.02526855 C50.91223654 -0.03252338 60.86109704 -0.02301427 70.81005859 -0.00390625 C82.27373162 0.0178582 93.73711997 0.0108053 105.20078611 -0.01121187 C115.08498918 -0.02942776 124.9691071 -0.03189404 134.85332155 -0.0214572 C140.73845865 -0.01525619 146.62346243 -0.01429243 152.5085907 -0.02760315 C158.04431515 -0.03925152 163.57967649 -0.03097341 169.11536217 -0.00802612 C171.13360177 -0.00278668 173.15187251 -0.00416983 175.17009926 -0.01307678 C197.82349254 -0.10375054 217.21778074 3.88924605 234.60351562 19.51757812 C235.52003906 20.29488281 235.52003906 20.29488281 236.45507812 21.08789062 C248.93361049 32.42683099 257.46178791 51.04775536 258.77544665 67.69656658 C259.06116513 73.79511178 259.02306323 79.89729048 259.00756836 86.00097656 C259.0132807 88.04425426 259.02024829 90.08752878 259.02836609 92.13079834 C259.04621961 97.64756946 259.04514353 103.16418083 259.0394237 108.6809721 C259.03631971 113.30274403 259.0424379 117.92448582 259.04846245 122.54625344 C259.06248123 133.45957238 259.0609692 144.372813 259.04956055 155.28613281 C259.03808926 166.50659553 259.05214456 177.72681894 259.07895702 188.94725013 C259.1011851 198.61480625 259.10773521 208.28228765 259.10188061 217.94986749 C259.09852593 223.70876057 259.10082615 229.46750042 259.11813164 235.22637177 C259.13371176 240.64712225 259.12952355 246.06752121 259.11082649 251.48825836 C259.10717067 253.46457354 259.11015995 255.44091542 259.12071228 257.41720581 C259.19429532 272.35187892 258.19969934 287.47270443 250.91601562 300.89257812 C250.57352783 301.54556885 250.23104004 302.19855957 249.87817383 302.87133789 C240.18224838 320.71263025 224.53900438 332.13041089 205.22851562 337.89257812 C197.43118422 340.03265715 189.86821047 340.66730351 181.83247375 340.65129089 C180.98543182 340.65355645 180.13838989 340.65582201 179.26568002 340.65815622 C176.44639299 340.6644523 173.62715458 340.66366968 170.80786133 340.6628418 C168.7785384 340.66583606 166.74921603 340.66923921 164.71989441 340.67301941 C159.21966763 340.68183721 153.71945642 340.68419661 148.21922326 340.6848352 C144.77842755 340.68554705 141.33763578 340.68768397 137.89684105 340.69033241 C125.88019943 340.69957909 113.86356889 340.70366822 101.84692383 340.70288086 C90.66688659 340.70228052 79.48689768 340.71282546 68.30687267 340.72862452 C58.69129883 340.74172584 49.07574074 340.74706366 39.46015805 340.74642545 C33.72483348 340.74617119 27.98955186 340.74898253 22.25423622 340.7596035 C16.85582019 340.76932793 11.45748777 340.769334 6.05906868 340.76208687 C4.08591336 340.76104635 2.11275272 340.76337197 0.13960648 340.76944733 C-25.05664298 340.84195688 -47.30980138 336.54275144 -65.77539062 318.30273438 C-78.34948936 304.94158326 -85.54782115 288.01097015 -85.5436554 269.73475647 C-85.54733208 268.86224965 -85.55100877 267.98974283 -85.55479687 267.09079641 C-85.56579134 264.1732365 -85.56967038 261.25571225 -85.57348633 258.33813477 C-85.5797543 256.24338672 -85.5864014 254.14863978 -85.59339905 252.05389404 C-85.61440654 245.17851531 -85.62480009 238.30313645 -85.63476562 231.42773438 C-85.63881477 229.05624314 -85.64293174 226.68475203 -85.64711571 224.31326103 C-85.6661621 213.1673393 -85.68039287 202.02142416 -85.68872768 190.87548929 C-85.69849069 178.03339647 -85.72478826 165.19147643 -85.76522857 152.34944445 C-85.79545222 142.40861783 -85.81020258 132.46784055 -85.81350869 122.5269689 C-85.8158525 116.59698813 -85.82472551 110.66719206 -85.84996986 104.73726082 C-85.87336427 99.15166554 -85.87743825 93.5663751 -85.86720848 87.98074341 C-85.86671573 85.94069335 -85.87295844 83.90062771 -85.88676453 81.86062431 C-85.98130603 67.05175594 -84.75491954 53.62606275 -77.70898438 40.26757812 C-77.36649658 39.60556396 -77.02400879 38.9435498 -76.67114258 38.26147461 C-67.76891555 21.6551262 -52.563786 9.13276046 -34.66091156 3.30066681 C-23.09127621 0.25025043 -11.90720004 -0.05254954 0 0 Z " fill="#0882D0" transform="translate(169.396484375,313.482421875)"/>
<path d="M0 0 C2.58971132 1.19220257 5.18348412 2.37544869 7.77734375 3.55859375 C8.45379944 3.86821548 9.13025513 4.17783722 9.82720947 4.49684143 C17.84668881 8.15567169 25.95332649 11.60831622 34.0625 15.0625 C35.57265419 15.70704632 37.08274561 16.35173972 38.59277344 16.99658203 C40.78911012 17.93443021 42.98548302 18.87219193 45.18209839 19.80938721 C52.81836545 23.06821808 60.43954573 26.36053834 68.04296875 29.6953125 C72.26746373 31.54692743 76.50501299 33.36547885 80.74919128 35.17132568 C83.90594867 36.51778612 87.057188 37.87686984 90.20773315 39.23779297 C91.76952111 39.90913449 93.33358252 40.57521314 94.89993286 41.23583984 C97.09312266 42.16174577 99.27752161 43.10600776 101.4609375 44.0546875 C102.12640091 44.33037567 102.79186432 44.60606384 103.47749329 44.8901062 C107.88160752 46.83453152 107.88160752 46.83453152 109.29541016 49.33251953 C109.13898965 52.29318468 108.29771511 53.29228894 106.1875 55.375 C103.26757812 56.94311523 103.26757812 56.94311523 99.71875 58.43359375 C99.0832019 58.70462418 98.44765381 58.9756546 97.79284668 59.25489807 C95.76212538 60.11828995 93.72522254 60.96578282 91.6875 61.8125 C89.68651657 62.65633195 87.68692605 63.50338069 85.68774414 64.35147095 C84.37746568 64.90521185 83.06544724 65.45485386 81.75170898 66.00033569 C77.83889598 67.63218191 74.06425093 69.43834877 70.28125 71.34765625 C61.98465578 75.10257705 55.48290953 72.36006526 47.3203125 69.29003906 C46.26585937 68.88495117 45.21140625 68.47986328 44.125 68.0625 C37.04612365 65.42547401 30.05083712 62.84308046 22.6875 61.125 C20.85058594 60.69380859 20.85058594 60.69380859 18.9765625 60.25390625 C17.10097656 59.81884766 17.10097656 59.81884766 15.1875 59.375 C-2.56195472 55.15433116 -2.56195472 55.15433116 -6.76953125 48.890625 C-8.39635271 46.52655486 -10.06539775 45.97802245 -12.8125 45.375 C-16.94637934 44.92403134 -19.34841159 45.17733271 -23.1875 46.8125 C-26.40584209 49.9542149 -26.64297916 51.81249645 -27 56.15625 C-26.78542612 58.69537424 -26.17030497 60.22864163 -24.8125 62.375 C-20.86694935 64.62960037 -17.28926772 64.7747114 -12.8125 64.375 C-12.049375 63.83875 -11.28625 63.3025 -10.5 62.75 C-3.96483826 59.40642888 5.3641651 64.1963053 12.00537109 66.27099609 C17.85708756 68.17111846 23.42750434 70.51915433 29.046875 73.02734375 C32.44912806 74.48726577 35.85702128 75.63584059 39.41796875 76.63671875 C41.55777831 77.52948698 42.72554047 78.58715475 44.1875 80.375 C44.1875 81.035 44.1875 81.695 44.1875 82.375 C43.11326782 82.85573975 43.11326782 82.85573975 42.01733398 83.34619141 C39.82723148 84.32654447 37.63730863 85.30729896 35.44750977 86.28833008 C32.87455022 87.44094166 30.30069745 88.59152964 27.72631836 89.7409668 C21.37252808 92.58111091 15.02792815 95.43783705 8.71281433 98.36315918 C5.90665752 99.66284361 3.09692926 100.95471246 0.28713989 102.246521 C-1.06494942 102.87106704 -2.41517809 103.49965793 -3.76345825 104.13238525 C-5.65935675 105.02170438 -7.56123323 105.89686919 -9.46484375 106.76953125 C-11.08894165 107.52520386 -11.08894165 107.52520386 -12.74584961 108.29614258 C-18.67952961 110.38363019 -22.54126026 109.38293878 -28.125 106.76953125 C-28.72210785 106.49451279 -29.3192157 106.21949432 -29.93441772 105.93614197 C-31.22291769 105.3413995 -32.50910255 104.74162053 -33.79315186 104.1373291 C-37.28106607 102.49673907 -40.78669517 100.89459337 -44.2890625 99.28515625 C-45.0067984 98.95397797 -45.7245343 98.62279968 -46.46401978 98.28158569 C-53.32587345 95.12055927 -60.24616812 92.10775244 -67.1875 89.125 C-69.64349719 88.06702176 -72.09931502 87.00864443 -74.5546875 85.94921875 C-75.19182678 85.67437653 -75.82896606 85.3995343 -76.4854126 85.11636353 C-87.52411797 80.34719451 -98.5228957 75.4858185 -109.52880859 70.64160156 C-110.36310394 70.27471222 -111.19739929 69.90782288 -112.05697632 69.52981567 C-113.69020466 68.81137408 -115.32304598 68.09205195 -116.95547485 67.37179565 C-120.61162322 65.76236825 -124.27272579 64.17326822 -127.96484375 62.64794922 C-128.92251648 62.2495005 -128.92251648 62.2495005 -129.89953613 61.84300232 C-131.57931445 61.14757038 -133.26312046 60.46188852 -134.94726562 59.77709961 C-137.9845782 58.2907937 -140.32668181 56.66313378 -142.8125 54.375 C-143.4375 51.875 -143.4375 51.875 -142.8125 49.375 C-139.27798089 46.12688759 -135.45684231 44.03316008 -131.125 42.0625 C-130.41859375 41.73548096 -129.7121875 41.40846191 -128.984375 41.0715332 C-116.36909257 35.28055447 -103.62941961 29.75556554 -90.91894531 24.17773438 C-87.33775849 22.60611206 -83.75830418 21.03059251 -80.1796875 19.453125 C-67.03339211 13.65887631 -53.87333781 7.89624619 -40.70849609 2.14428711 C-40.05714691 1.85926834 -39.40579773 1.57424957 -38.73471069 1.28059387 C-37.4675541 0.72738598 -36.19936456 0.17653726 -34.93008423 -0.3717804 C-32.30628465 -1.50888415 -29.71580318 -2.67357983 -27.16015625 -3.95751953 C-17.03211071 -9.01072174 -9.58577056 -4.4945159 0 0 Z " fill="#FCFCFD" transform="translate(272.8125,368.625)"/>
<path d="M0 0 C3.07731921 0.81672362 5.69697923 1.83219807 8.56079102 3.21508789 C9.61564697 3.71693604 10.67050293 4.21878418 11.75732422 4.73583984 C12.8977417 5.28457764 14.03815918 5.83331543 15.21313477 6.39868164 C17.70459589 7.57769826 20.20046048 8.74717765 22.69750977 9.91430664 C23.3600325 10.22410965 24.02255524 10.53391266 24.70515442 10.85310364 C32.58851665 14.52578379 40.52612303 18.07382814 48.49215698 21.5632019 C50.13207062 22.28360216 51.76990108 23.00876435 53.4055481 23.73880005 C55.71758711 24.76960808 58.03640303 25.78337998 60.35766602 26.79321289 C61.0420575 27.1019635 61.72644897 27.41071411 62.43157959 27.7288208 C67.80481551 30.03073349 72.27118521 30.81586533 77.87524414 28.90917969 C78.73956055 28.47645752 79.60387695 28.04373535 80.49438477 27.59790039 C81.48237061 27.11264893 82.47035645 26.62739746 83.48828125 26.12744141 C84.53185791 25.59820068 85.57543457 25.06895996 86.65063477 24.52368164 C88.88087607 23.42165873 91.11135035 22.32010718 93.34204102 21.21899414 C94.4714209 20.65599609 95.60080078 20.09299805 96.7644043 19.51293945 C102.01062953 16.91516909 107.29961269 14.40889576 112.58813477 11.89868164 C124.67524492 6.4193103 124.67524492 6.4193103 136.15063477 -0.16381836 C138.77563477 0.08618164 138.77563477 0.08618164 141.15063477 0.83618164 C142.30694328 3.14879867 142.30103714 4.53930266 142.34350586 7.11474609 C142.35956879 7.99939041 142.37563171 8.88403473 142.3921814 9.79548645 C142.43663192 13.84314216 142.47769617 17.89063386 142.50073242 21.93847656 C142.51729318 24.07335307 142.54458464 26.2081741 142.58276367 28.34277344 C142.6375281 31.42029594 142.65940589 34.49651875 142.67407227 37.57446289 C142.69674164 38.52670242 142.71941101 39.47894196 142.74276733 40.46003723 C142.72837682 44.97456596 142.6820935 47.13060745 139.90087891 50.82299805 C137.50230134 52.57876108 135.30228296 54.03833803 132.62329102 55.30883789 C131.75994141 55.7272998 130.8965918 56.14576172 130.00708008 56.5769043 C128.62407715 57.23118408 128.62407715 57.23118408 127.21313477 57.89868164 C119.32706844 61.72871885 111.5718896 65.71711835 103.90063477 69.96118164 C97.03674645 73.73082422 90.16941573 77.48915516 83.21313477 81.08618164 C82.49802734 81.46919434 81.78291992 81.85220703 81.04614258 82.24682617 C80.37035156 82.59084473 79.69456055 82.93486328 78.99829102 83.28930664 C78.42087158 83.58998047 77.84345215 83.8906543 77.24853516 84.20043945 C71.71272795 85.87799583 67.19550876 84.7990144 62.11547852 82.37915039 C60.98762939 81.849104 59.85978027 81.31905762 58.69775391 80.77294922 C57.49434223 80.19028386 56.29114063 79.60718441 55.08813477 79.02368164 C53.83394262 78.42728272 52.57929777 77.83183496 51.32421875 77.23730469 C42.85149567 73.20740345 34.43970877 69.05112651 26.07104492 64.80957031 C18.70744691 61.07980445 11.26168727 57.53932882 3.76025391 54.09521484 C2.9364624 53.71067139 2.1126709 53.32612793 1.26391602 52.92993164 C0.17784058 52.43009766 0.17784058 52.43009766 -0.93017578 51.92016602 C-3.02796513 50.73530598 -4.31839152 49.69904127 -5.84936523 47.83618164 C-6.23031616 45.78723145 -6.23031616 45.78723145 -6.23754883 43.41235352 C-6.24700531 42.52132935 -6.25646179 41.63030518 -6.26620483 40.71228027 C-6.25709579 39.2731427 -6.25709579 39.2731427 -6.24780273 37.80493164 C-6.25067291 36.81746948 -6.25354309 35.83000732 -6.25650024 34.81262207 C-6.25854198 32.72460354 -6.25300448 30.63656594 -6.24047852 28.54858398 C-6.22442674 25.34844281 -6.24032383 22.14956468 -6.25952148 18.94946289 C-6.25753907 16.92211635 -6.25369544 14.89477059 -6.24780273 12.86743164 C-6.25387543 11.90800659 -6.25994812 10.94858154 -6.26620483 9.96008301 C-6.25674835 9.06905884 -6.24729187 8.17803467 -6.23754883 7.26000977 C-6.23516205 6.47630005 -6.23277527 5.69259033 -6.23031616 4.88513184 C-5.51436528 1.03437943 -3.82824429 -0.22009699 0 0 Z " fill="#FCFCFD" transform="translate(182.849365234375,458.163818359375)"/>
<path d="M0 0 C4.96727173 4.58736567 8.54363631 9.71125406 11 16 C11.2990625 16.76441406 11.598125 17.52882813 11.90625 18.31640625 C16.55225623 32.40498997 14.93003419 47.6014089 9 61 C6.99191947 64.40085848 4.78255491 67.20547711 2 70 C1.14728516 70.85658203 1.14728516 70.85658203 0.27734375 71.73046875 C-10.08333938 81.28872995 -21.16623425 81.67793948 -34.62451172 81.17041016 C-45.0833068 80.42012866 -53.28481164 74.36555917 -60.0390625 66.6796875 C-69.76053965 53.81424328 -70.39300574 39.58313069 -69 24 C-68.21126642 19.90124401 -67.05825547 16.61792732 -65 13 C-64.56429687 12.20851563 -64.12859375 11.41703125 -63.6796875 10.6015625 C-57.8555164 1.02191495 -49.861224 -4.59255298 -39.4375 -8.25 C-25.2021864 -11.36660712 -11.60579978 -8.64095681 0 0 Z " fill="#087FCD" transform="translate(607,464)"/>
<path d="M0 0 C8.25 0 16.5 0 25 0 C33.03078436 19.99152701 39.61925954 40.43247036 46 61 C46.23359222 60.28003342 46.46718445 59.56006683 46.70785522 58.81828308 C48.91005187 52.0335679 51.11666474 45.25031282 53.32825279 38.46865368 C54.46509488 34.98208852 55.60022104 31.49498411 56.73144531 28.0065918 C57.82319749 24.64013527 58.9194311 21.27516879 60.01878738 17.91118813 C60.64116278 16.00277549 61.25888772 14.09284829 61.8765564 12.1829071 C62.44692123 10.44144157 62.44692123 10.44144157 63.02880859 8.66479492 C63.36190033 7.64109299 63.69499207 6.61739105 64.03817749 5.56266785 C65 3 65 3 67 0 C69.24658203 -0.34057617 69.24658203 -0.34057617 72.0078125 -0.29296875 C72.99394531 -0.28330078 73.98007812 -0.27363281 74.99609375 -0.26367188 C76.02863281 -0.23853516 77.06117188 -0.21339844 78.125 -0.1875 C79.68541016 -0.16719727 79.68541016 -0.16719727 81.27734375 -0.14648438 C83.85207627 -0.11105228 86.4257833 -0.06165221 89 0 C87.28482521 5.39307539 85.20999832 10.61777652 83.125 15.875 C79.34737861 25.46692772 75.67669114 35.0956439 72.0625 44.75 C71.80936035 45.4260025 71.5562207 46.102005 71.29541016 46.79849243 C68.1423071 55.22384739 65.01468099 63.65835332 61.90307617 72.09912109 C59.94570736 77.40327277 57.97516808 82.70245535 56 88 C55.69868164 88.81355957 55.39736328 89.62711914 55.08691406 90.46533203 C50.20589086 103.57050563 44.57743613 115.26932729 31.25 121.375 C24.05797695 124.35011745 17.77780921 124.07777809 10 124 C10 117.73 10 111.46 10 105 C11.69125 104.7525 13.3825 104.505 15.125 104.25 C21.58792786 103.04855828 25.67771558 100.96290958 29.6875 95.6875 C31.96603857 92.29174251 33.52400948 88.80650188 35 85 C34.34 85 33.68 85 33 85 C32.75580322 84.31639404 32.51160645 83.63278809 32.26000977 82.9284668 C26.1611371 65.92491569 19.74758047 49.05645284 13.125 32.25 C12.75923859 31.31739349 12.39347717 30.38478699 12.01663208 29.42391968 C6.93440513 16.31381317 6.93440513 16.31381317 0.80810547 3.67089844 C0 2 0 2 0 0 Z " fill="#0379C8" transform="translate(808,456)"/>
<path d="M0 0 C0.76699219 -0.03351562 1.53398437 -0.06703125 2.32421875 -0.1015625 C3.49404297 -0.17503906 3.49404297 -0.17503906 4.6875 -0.25 C8.35751703 0.57652484 9.70713515 2.34494155 12.01171875 5.2734375 C12.68651218 8.29224154 12.59609634 11.21242962 12.5 14.29296875 C12.49292526 15.15153976 12.48585052 16.01011078 12.4785614 16.8946991 C12.45066277 19.62601353 12.38793566 22.35524708 12.32421875 25.0859375 C12.29912989 26.9420276 12.27631774 28.79814996 12.25585938 30.65429688 C12.20085128 35.19480722 12.11461239 39.73377007 12.01171875 44.2734375 C11.2544751 44.11496338 10.49723145 43.95648926 9.71704102 43.79321289 C-26.0331314 36.92450816 -70.52795531 44.32465637 -100.86328125 64.5859375 C-102.12785156 65.50826172 -102.12785156 65.50826172 -103.41796875 66.44921875 C-106.49906079 68.63595125 -109.68739322 70.43645682 -112.98828125 72.2734375 C-113.7001322 61.14747087 -113.49327572 52.83446964 -106.98828125 43.2734375 C-106.26318359 42.20416016 -106.26318359 42.20416016 -105.5234375 41.11328125 C-85.67925854 15.71475195 -43.19964882 4.99400611 -12.98828125 1.2734375 C-8.6635594 0.79112066 -4.33319648 0.39650164 0 0 Z " fill="#FBFCFD" transform="translate(369.98828125,521.7265625)"/>
<path d="M0 0 C28.98415366 4.2339597 68.44201442 14.99390435 88.19921875 38.2421875 C96.10380884 48.88106976 97.81335143 57.83642861 97.1875 70.875 C93.03980278 69.43954923 90.00000219 67.37614543 86.5 64.75 C57.40552971 43.95860177 13.12621377 36.59508243 -21.8125 41.875 C-23.14771926 42.20069682 -24.48136312 42.53300075 -25.8125 42.875 C-25.93631149 37.41243725 -26.02693826 31.95069512 -26.0871582 26.48706055 C-26.11226702 24.62949391 -26.14636134 22.77202573 -26.18969727 20.91479492 C-26.25051124 18.24112642 -26.2787452 15.56876635 -26.30078125 12.89453125 C-26.32658768 12.06726028 -26.3523941 11.23998932 -26.37898254 10.38764954 C-26.38109476 6.02271706 -26.22224062 4.39263522 -23.41674805 0.84838867 C-17.12678794 -3.91787622 -7.41356489 -0.96926707 0 0 Z " fill="#FBFCFD" transform="translate(155.8125,523.125)"/>
<path d="M0 0 C7.59 0 15.18 0 23 0 C23 33.66 23 67.32 23 102 C37.52 102 52.04 102 67 102 C67 109.92 67 117.84 67 126 C44.89 126 22.78 126 0 126 C0 84.42 0 42.84 0 0 Z " fill="#0983D0" transform="translate(468,418)"/>
<path d="M0 0 C4.60447774 3.54288981 8.76660215 7.14990322 12 12 C8.7 16.62 5.4 21.24 2 26 C0.5459375 24.700625 0.5459375 24.700625 -0.9375 23.375 C-8.54423836 16.87918489 -14.83808486 12.59571049 -25.06640625 12.7890625 C-28.08025086 13.11784555 -29.76574813 13.96886194 -32 16 C-33.33550847 18.84627591 -33.33550847 18.84627591 -33 22 C-28.04815269 29.42777096 -17.90495645 30.76849645 -9.8125 33 C0.48935711 35.93215344 6.5291183 39.19155099 13 48 C15.93135227 53.74056487 15.86157065 60.39012803 14.3828125 66.5859375 C11.58937487 74.62016078 6.41555863 80.61006303 -1.1875 84.5 C-6.51703442 86.36492262 -11.91055384 86.38275422 -17.5 86.4375 C-18.37809326 86.4478125 -19.25618652 86.458125 -20.16088867 86.46875 C-32.21796834 86.3069854 -42.75904099 82.0198991 -51.6875 73.875 C-54 71 -54 71 -53.9296875 69.1484375 C-52.62601146 66.13574078 -50.67216361 64.14203429 -48.4375 61.75 C-47.61121094 60.85796875 -46.78492188 59.9659375 -45.93359375 59.046875 C-45.29550781 58.37140625 -44.65742187 57.6959375 -44 57 C-43.56171875 57.36351562 -43.1234375 57.72703125 -42.671875 58.1015625 C-34.22626981 64.79624954 -25.73590005 70.10336239 -14.64453125 69.44921875 C-10.60371179 68.76281663 -8.84797657 68.00192125 -6 65 C-4.67451168 61.55663226 -4.67451168 61.55663226 -5 58 C-9.71914488 50.61351236 -23.09457035 49.31168969 -31.04296875 47.33789062 C-40.26435311 44.93424229 -47.30104698 40.93059407 -52.3125 32.4375 C-55.10304784 26.40080466 -54.95409054 19.85214054 -53.375 13.4765625 C-50.64325109 6.33011222 -45.2387879 1.27056306 -38.3125 -1.875 C-26.88146399 -5.75723865 -10.55549122 -6.3941918 0 0 Z " fill="#047AC9" transform="translate(796,459)"/>
<path d="M0 0 C3.37558173 2.55332464 6.48672213 5.24748151 9.4375 8.28125 C7.95387716 14.54543531 4.19587844 19.19638505 0.4375 24.28125 C0.01339844 23.90613281 -0.41070313 23.53101563 -0.84765625 23.14453125 C-8.2637735 16.67376521 -14.39723308 11.43210161 -24.6875 10.96875 C-28.71647466 11.29366731 -30.62129185 11.51829689 -33.5625 14.28125 C-34.81088381 17.68653996 -34.81088381 17.68653996 -34.5625 21.28125 C-31.99089436 24.44720843 -29.64311448 25.92799947 -25.8125 27.21875 C-24.8534375 27.54746094 -23.894375 27.87617188 -22.90625 28.21484375 C-20.452319 28.99746427 -17.9968975 29.76014136 -15.53125 30.50390625 C-14.83354492 30.7160376 -14.13583984 30.92816895 -13.41699219 31.14672852 C-12.05057788 31.55871352 -10.68152065 31.96206819 -9.30957031 32.35522461 C-0.80906501 34.89324478 5.21238846 39.03670347 10.4375 46.28125 C13.42922268 52.39477025 13.19845811 59.22329535 11.5 65.71875 C9.07754886 72.17107312 4.3803678 78.15139531 -1.71655273 81.44482422 C-8.01965063 84.24606267 -13.65330051 84.91946442 -20.5 84.78125 C-21.46639404 84.76843994 -22.43278809 84.75562988 -23.4284668 84.74243164 C-35.99509384 84.38490076 -44.2645765 80.32809815 -53.265625 71.63671875 C-54.6875 70.09375 -54.6875 70.09375 -56.5625 67.28125 C-56.28932764 63.36577956 -53.93022335 60.96294801 -51.5 58.03125 C-50.76652344 57.13921875 -50.03304687 56.2471875 -49.27734375 55.328125 C-48.71144531 54.65265625 -48.14554688 53.9771875 -47.5625 53.28125 C-44.46280827 54.64241898 -42.56722193 56.14978727 -40.3125 58.65625 C-35.65813214 63.47111331 -29.60760626 66.9816125 -22.8203125 67.484375 C-21.78648437 67.49984375 -20.75265625 67.5153125 -19.6875 67.53125 C-18.65882813 67.55703125 -17.63015625 67.5828125 -16.5703125 67.609375 C-13.15029313 67.23628198 -11.31224147 66.31152507 -8.5625 64.28125 C-7.14208179 61.44041359 -7.24797728 59.42647722 -7.5625 56.28125 C-10.61278431 52.29300326 -14.20526514 51.13541459 -18.875 49.84375 C-20.30631221 49.42036 -21.73729419 48.99585224 -23.16796875 48.5703125 C-23.8954834 48.35793945 -24.62299805 48.14556641 -25.37255859 47.92675781 C-28.8277544 46.90830322 -32.26041916 45.82770204 -35.6875 44.71875 C-36.86570312 44.34621094 -38.04390625 43.97367187 -39.2578125 43.58984375 C-46.33054755 40.78917444 -51.44563015 36.51498969 -54.875 29.65625 C-56.58343046 21.26940956 -56.44045742 13.98892433 -52.08984375 6.46875 C-41.2082269 -9.1161744 -14.9526683 -10.02922874 0 0 Z " fill="#0378C7" transform="translate(952.5625,460.71875)"/>
<path d="M0 0 C1.02480469 0.00322266 2.04960938 0.00644531 3.10546875 0.00976562 C4.16894531 0.01814453 5.23242188 0.02652344 6.328125 0.03515625 C7.40707031 0.03966797 8.48601563 0.04417969 9.59765625 0.04882812 C12.25783625 0.06059883 14.91798769 0.07853386 17.578125 0.09765625 C17.578125 5.70765625 17.578125 11.31765625 17.578125 17.09765625 C15.886875 17.20078125 14.195625 17.30390625 12.453125 17.41015625 C7.88954379 17.83303636 4.42519752 18.43429835 0.578125 21.09765625 C-1.80501479 24.63473741 -1.8147177 28.16882482 -2.046875 32.34765625 C-2.2325 35.68890625 -2.2325 35.68890625 -2.421875 39.09765625 C4.178125 39.09765625 10.778125 39.09765625 17.578125 39.09765625 C17.578125 44.70765625 17.578125 50.31765625 17.578125 56.09765625 C10.978125 56.09765625 4.378125 56.09765625 -2.421875 56.09765625 C-2.421875 79.52765625 -2.421875 102.95765625 -2.421875 127.09765625 C-9.681875 127.09765625 -16.941875 127.09765625 -24.421875 127.09765625 C-24.421875 103.66765625 -24.421875 80.23765625 -24.421875 56.09765625 C-29.041875 56.09765625 -33.661875 56.09765625 -38.421875 56.09765625 C-38.421875 50.48765625 -38.421875 44.87765625 -38.421875 39.09765625 C-33.801875 39.09765625 -29.181875 39.09765625 -24.421875 39.09765625 C-24.751875 37.11765625 -25.081875 35.13765625 -25.421875 33.09765625 C-26.04346626 23.57057486 -25.56058402 15.85055848 -20.234375 7.78515625 C-14.41931956 2.22854772 -7.96788311 -0.04426602 0 0 Z " fill="#087ECD" transform="translate(659.421875,416.90234375)"/>
<path d="M0 0 C7.59 0 15.18 0 23 0 C23 7.92 23 15.84 23 24 C29.93 24 36.86 24 44 24 C44 29.61 44 35.22 44 41 C37.07 41 30.14 41 23 41 C23.0934347 47.92366347 23.19950668 54.8469731 23.31738281 61.77026367 C23.35570602 64.12632924 23.39055294 66.482454 23.421875 68.83862305 C23.46745274 72.22205787 23.52545952 75.60508408 23.5859375 78.98828125 C23.59748871 80.04461258 23.60903992 81.10094391 23.62094116 82.18928528 C23.64081085 83.17007553 23.66068054 84.15086578 23.68115234 85.16137695 C23.69447601 86.02519485 23.70779968 86.88901276 23.7215271 87.77900696 C23.8678214 90.28584887 23.8678214 90.28584887 26 93 C28.42487758 93.44236041 28.42487758 93.44236041 31.1875 93.3125 C32.10917969 93.30863281 33.03085937 93.30476562 33.98046875 93.30078125 C37.72108959 93.01867001 37.72108959 93.01867001 44 91 C44 97.6 44 104.2 44 111 C38.17185522 112.94271493 34.16752163 113.36606793 28.1875 113.375 C26.91036133 113.41173828 26.91036133 113.41173828 25.60742188 113.44921875 C18.70675559 113.48075264 12.6096574 112.02779034 7.22192383 107.50854492 C0.01112039 99.85016677 -0.43565961 90.80002216 -0.29296875 80.74609375 C-0.28872391 79.60463394 -0.28447906 78.46317413 -0.28010559 77.28712463 C-0.26342151 73.6703349 -0.22578766 70.05411902 -0.1875 66.4375 C-0.17243992 63.97331538 -0.15875384 61.50912197 -0.14648438 59.04492188 C-0.11355152 53.02972954 -0.06183991 47.01496179 0 41 C-3.63 41 -7.26 41 -11 41 C-11 35.39 -11 29.78 -11 24 C-7.37 24 -3.74 24 0 24 C0 16.08 0 8.16 0 0 Z " fill="#087ECB" transform="translate(692,432)"/>
<path d="M0 0 C1.2154248 -0.00104736 2.43084961 -0.00209473 3.68310547 -0.00317383 C4.99166504 0.01463135 6.30022461 0.03243652 7.6484375 0.05078125 C8.31893127 0.05671295 8.98942505 0.06264465 9.68023682 0.0687561 C41.12712165 0.35040764 84.08640844 1.42625219 108.0234375 25.36328125 C108.5184375 27.34328125 108.5184375 27.34328125 109.0234375 29.36328125 C113.9734375 29.36328125 118.9234375 29.36328125 124.0234375 29.36328125 C125.0134375 26.88828125 125.0134375 26.88828125 126.0234375 24.36328125 C140.41619571 10.9764685 161.85861072 4.73679076 181.0234375 2.36328125 C181.65362793 2.27594727 182.28381836 2.18861328 182.93310547 2.09863281 C195.62478297 0.38564566 208.30050632 0.1516469 221.0859375 0.11328125 C221.89368622 0.10810486 222.70143494 0.10292847 223.53366089 0.09759521 C225.8546507 0.08585711 228.17509936 0.08906268 230.49609375 0.09765625 C231.19630646 0.09369843 231.89651917 0.0897406 232.61795044 0.08566284 C236.1960898 0.11969099 239.10311524 0.15990821 242.0234375 2.36328125 C242.9609375 5.80078125 242.9609375 5.80078125 243.0234375 9.36328125 C241.53300671 11.39807141 240.63119198 12.24111281 238.14030457 12.74182129 C237.43166763 12.74387573 236.7230307 12.74593018 235.99291992 12.74804688 C235.1824823 12.75829895 234.37204468 12.76855103 233.53704834 12.77911377 C232.65986145 12.77595154 231.78267456 12.77278931 230.87890625 12.76953125 C228.99601096 12.78925417 227.11311713 12.8091162 225.23022461 12.82910156 C224.24617645 12.83413696 223.2621283 12.83917236 222.2482605 12.84436035 C197.99171246 12.97046425 197.99171246 12.97046425 174.0234375 16.36328125 C173.20246582 16.5334375 172.38149414 16.70359375 171.53564453 16.87890625 C158.31976626 19.72485581 143.32998681 23.87173653 134.0234375 34.36328125 C132.97055936 35.99705767 131.9507374 37.65509722 131.0234375 39.36328125 C126.80202567 41.47398717 121.28659265 40.63704387 116.6484375 40.67578125 C115.49859375 40.70478516 114.34875 40.73378906 113.1640625 40.76367188 C112.05804688 40.77205078 110.95203125 40.78042969 109.8125 40.7890625 C108.79881348 40.80364502 107.78512695 40.81822754 106.74072266 40.83325195 C103.30425312 40.23889401 102.20294437 39.02144771 100.0234375 36.36328125 C99.4871875 35.57953125 98.9509375 34.79578125 98.3984375 33.98828125 C88.32986218 22.85985589 71.21985527 19.03599195 57.0234375 16.36328125 C56.24291016 16.21616699 55.46238281 16.06905273 54.65820312 15.91748047 C38.97735935 13.12452697 23.22638712 12.91967232 7.34350586 12.8293457 C6.48697922 12.81921951 5.63045258 12.80909332 4.74797058 12.79866028 C3.12356708 12.77965855 1.49896749 12.77257742 -0.12553406 12.77909851 C-5.46977617 12.70378997 -5.46977617 12.70378997 -7.96777344 11.02539062 C-9.56346932 8.39627698 -9.35096423 6.35849509 -8.9765625 3.36328125 C-6.53481897 -0.17180349 -4.10472197 -0.01130862 0 0 Z " fill="#F9FBFD" transform="translate(138.9765625,578.63671875)"/>
<path d="M0 0 C6.01981835 4.51486377 9.12044142 9.51735424 10.5 16.875 C11.30115341 26.35714451 11.07047266 35.3741129 5.25 43.25 C0.47358535 47.8093049 -3.49589522 49.03630394 -9.9375 49.3125 C-16.02423283 49.11211373 -20.72440322 47.73556403 -25.03125 43.296875 C-31.25705853 35.26123841 -31.31690482 25.6472239 -30.5 15.875 C-28.93616033 9.00654509 -26.34343445 4.77062297 -20.5 0.875 C-14.60483966 -2.76764274 -6.37175418 -2.04806384 0 0 Z " fill="#FBFCFD" transform="translate(589.5,476.125)"/>
<path d="M0 0 C2.875 0.125 2.875 0.125 6 1 C9.25105304 5.0187351 9.403518 8.73763592 9.29296875 13.70703125 C9.28872391 14.43242599 9.28447906 15.15782074 9.28010559 15.90519714 C9.26339543 18.20801891 9.2257596 20.50994553 9.1875 22.8125 C9.17244316 24.3795446 9.1587565 25.946603 9.14648438 27.51367188 C9.11351731 31.34278957 9.06178992 35.17124334 9 39 C9.63292969 39.28488281 10.26585937 39.56976563 10.91796875 39.86328125 C13 41 13 41 14.3125 43.1875 C15.2183567 46.89327742 14.98769347 49.31261103 14 53 C11.93174858 55.97311141 10.38472067 57.61619155 6.84375 58.59765625 C2.49854276 59.2277113 -1.19156992 59.46427829 -5 57 C-7.8856699 53.61680081 -8.58161855 50.45210988 -8.4296875 46.00390625 C-7.6505273 42.37018642 -5.65739868 40.53085588 -3 38 C-2.34 38 -1.68 38 -1 38 C-1.00523682 36.88439697 -1.01047363 35.76879395 -1.01586914 34.61938477 C-1.03391775 30.49520667 -1.04543149 26.37103209 -1.05493164 22.24682617 C-1.05997218 20.45905979 -1.06680454 18.67129755 -1.07543945 16.88354492 C-1.0875173 14.31948832 -1.09323094 11.75548603 -1.09765625 9.19140625 C-1.10281754 8.3872377 -1.10797882 7.58306915 -1.11329651 6.75453186 C-1.11349215 4.83598285 -1.06201983 2.91754632 -1 1 C-0.67 0.67 -0.34 0.34 0 0 Z " fill="#F6FAFC" transform="translate(345,449)"/>
<path d="M0 0 C7.59 0 15.18 0 23 0 C23 33.66 23 67.32 23 102 C37.52 102 52.04 102 67 102 C67 109.92 67 117.84 67 126 C44.89 126 22.78 126 0 126 C0 84.42 0 42.84 0 0 Z M1 1 C1 41.92 1 82.84 1 125 C22.45 125 43.9 125 66 125 C66 118.07 66 111.14 66 104 C44.22 103.505 44.22 103.505 22 103 C21.67 69.34 21.34 35.68 21 1 C14.4 1 7.8 1 1 1 Z " fill="#1173C9" transform="translate(468,418)"/>
<path d="M0 0 C0.433125 0.825 0.86625 1.65 1.3125 2.5 C4.91966032 5.85549797 7.28769944 5.48660358 12.05078125 5.37109375 C15.72750812 4.9846213 15.72750812 4.9846213 22 3 C22 9.6 22 16.2 22 23 C21.34 23 20.68 23 20 23 C20 17.39 20 11.78 20 6 C18.63875 6.33 17.2775 6.66 15.875 7 C6.63912523 8.9977284 6.63912523 8.9977284 2.125 6.25 C0 4 0 4 0 0 Z " fill="#046DC5" transform="translate(714,520)"/>
<path d="M0 0 C0.33 0 0.66 0 1 0 C1.33 5.94 1.66 11.88 2 18 C0.35 18.66 -1.3 19.32 -3 20 C-5.8125 18.625 -5.8125 18.625 -8 17 C-7.67 16.34 -7.34 15.68 -7 15 C-5.68 15.66 -4.36 16.32 -3 17 C-3 11.72 -3 6.44 -3 1 C-2.34 2.32 -1.68 3.64 -1 5 C-0.67 3.35 -0.34 1.7 0 0 Z " fill="#066BC6" transform="translate(256,577)"/>
<path d="M0 0 C0.495 0.99 0.495 0.99 1 2 C0.38511719 2.44730469 -0.22976563 2.89460937 -0.86328125 3.35546875 C-5.8903619 7.00247272 -5.8903619 7.00247272 -9.6875 11.8125 C-11 14 -11 14 -13.46484375 15.16015625 C-18.07201821 16.25467836 -22.18319305 15.97829872 -26.875 15.625 C-27.75414062 15.56828125 -28.63328125 15.5115625 -29.5390625 15.453125 C-31.69342162 15.31262332 -33.84683563 15.1577566 -36 15 C-36 14.67 -36 14.34 -36 14 C-35.34926514 13.98541748 -34.69853027 13.97083496 -34.02807617 13.95581055 C-31.08061694 13.88135451 -28.13429358 13.78468734 -25.1875 13.6875 C-24.16333984 13.66494141 -23.13917969 13.64238281 -22.08398438 13.61914062 C-21.10107422 13.58369141 -20.11816406 13.54824219 -19.10546875 13.51171875 C-18.19949951 13.48553467 -17.29353027 13.45935059 -16.36010742 13.43237305 C-13.58208531 12.92343779 -12.74542241 12.16475319 -11 10 C-10.52820313 9.4328125 -10.05640625 8.865625 -9.5703125 8.28125 C-9.09335937 7.6934375 -8.61640625 7.105625 -8.125 6.5 C-5.6982768 3.63039981 -3.40005327 1.70002664 0 0 Z " fill="#2B85D0" transform="translate(282,605)"/>
<path d="M0 0 C0.66 0.33 1.32 0.66 2 1 C0.1875 3 0.1875 3 -2 5 C-2.99 5 -3.98 5 -5 5 C-5.66 6.32 -6.32 7.64 -7 9 C-8.32 8.67 -9.64 8.34 -11 8 C-9.5433323 6.85204994 -8.08461063 5.70670581 -6.625 4.5625 C-5.40683594 3.60537109 -5.40683594 3.60537109 -4.1640625 2.62890625 C-2 1 -2 1 0 0 Z " fill="#0670C8" transform="translate(273,583)"/>
<path d="M0 0 C0.66 1.32 1.32 2.64 2 4 C1.34 4 0.68 4 0 4 C0 4.66 0 5.32 0 6 C-0.66 6 -1.32 6 -2 6 C-2.33 8.31 -2.66 10.62 -3 13 C-3.66 12.67 -4.32 12.34 -5 12 C-4.54738642 10.56068883 -4.08767021 9.12361001 -3.625 7.6875 C-3.24214844 6.48673828 -3.24214844 6.48673828 -2.8515625 5.26171875 C-2 3 -2 3 0 0 Z " fill="#1077CB" transform="translate(544,474)"/>
<path d="M0 0 C0.99 0.33 1.98 0.66 3 1 C1.92807816 2.3218362 0.84197305 3.63217927 -0.25 4.9375 C-0.85328125 5.66839844 -1.4565625 6.39929688 -2.078125 7.15234375 C-4.10741134 9.10326334 -5.254407 9.61731779 -8 10 C-6.58226538 6.45566346 -5.32387762 5.66193881 -2 4 C-0.73195434 1.9664052 -0.73195434 1.9664052 0 0 Z " fill="#046AC3" transform="translate(851,564)"/>
<path d="M0 0 C1 3 1 3 1.375 4.9375 C2.1259947 7.41578253 3.36725641 9.01231215 5 11 C1.66282451 9.6190998 -0.22301036 8.1798762 -2 5 C-1.75203633 2.83031791 -1.55766393 1.55766393 0 0 Z " fill="#0A6AC1" transform="translate(898,523)"/>
<path d="M0 0 C2.475 0.99 2.475 0.99 5 2 C4.67 2.66 4.34 3.32 4 4 C0.9375 4.625 0.9375 4.625 -2 5 C-1.34 3.35 -0.68 1.7 0 0 Z " fill="#0D76C9" transform="translate(287,585)"/>
<path d="M0 0 C2.62187494 1.04874998 3.79371361 1.64931313 5.25 4.125 C5.4975 4.74375 5.745 5.3625 6 6 C5.01 6.99 4.02 7.98 3 9 C3.0928125 7.824375 3.0928125 7.824375 3.1875 6.625 C3.125625 5.75875 3.06375 4.8925 3 4 C2.01 3.34 1.02 2.68 0 2 C0 1.34 0 0.68 0 0 Z " fill="#0869C0" transform="translate(956,465)"/>
<path d="M0 0 C0.66 0.66 1.32 1.32 2 2 C1.67 2.66 1.34 3.32 1 4 C1.99 4 2.98 4 4 4 C3.67 4.66 3.34 5.32 3 6 C1.35 5.67 -0.3 5.34 -2 5 C-2.33 4.01 -2.66 3.02 -3 2 C-2.01 1.34 -1.02 0.68 0 0 Z " fill="#0F87D5" transform="translate(379,410)"/>
</svg>
